0
SECTION
2
HEADER
9
$INSUNITS
70
4
0
ENDSEC
0
SECTION
2
TABLES
0
TABLE
2
LTYPE
0
LTYPE
72
65
70
0
2
CONTINUOUS
3
______
73
0
40
0
0
LTYPE
72
65
70
0
2
DASHED
3
_ _ _ 
73
2
40
7.5
49
5
49
-2.5
0
LTYPE
72
65
70
0
2
DOTTED
3
. . . 
73
2
40
1.5
49
0.5
49
-1
0
ENDTAB
0
TABLE
2
LAYER
0
ENDTAB
0
ENDSEC
0
SECTION
2
ENTITIES
0
LINE
8
0
6
CONTINUOUS
10
139
20
-159.5
11
139
21
-102.5
0
LINE
8
0
6
CONTINUOUS
10
139
20
-102.5
11
178.5
21
-102.5
0
LINE
8
0
6
CONTINUOUS
10
178.5
20
-102.5
11
178.5
21
-100.125
0
LINE
8
0
6
CONTINUOUS
10
178.5
20
-100.125
11
197.5
21
-100.125
0
LINE
8
0
6
CONTINUOUS
10
197.5
20
-100.125
11
197.5
21
-97.75
0
LINE
8
0
6
CONTINUOUS
10
197.5
20
-97.75
11
277
21
-97.75
0
LINE
8
0
6
CONTINUOUS
10
277
20
-97.75
11
277
21
-178.5
0
LINE
8
0
6
CONTINUOUS
10
277
20
-178.5
11
196
21
-178.5
0
LINE
8
0
6
CONTINUOUS
10
196
20
-178.5
11
196
21
-159.5
0
LINE
8
0
6
CONTINUOUS
10
196
20
-159.5
11
139
21
-159.5
0
LINE
8
0
6
CONTINUOUS
10
144
20
-159
11
156
21
-159
0
LINE
8
0
6
CONTINUOUS
10
159
20
-156
11
159
21
-144
0
LINE
8
0
6
CONTINUOUS
10
156
20
-141
11
144
21
-141
0
LINE
8
0
6
CONTINUOUS
10
141
20
-144
11
141
21
-156
0
LINE
8
0
6
CONTINUOUS
10
144
20
-140
11
156
21
-140
0
LINE
8
0
6
CONTINUOUS
10
159
20
-137
11
159
21
-125
0
LINE
8
0
6
CONTINUOUS
10
156
20
-122
11
144
21
-122
0
LINE
8
0
6
CONTINUOUS
10
141
20
-125
11
141
21
-137
0
LINE
8
0
6
CONTINUOUS
10
144
20
-121
11
156
21
-121
0
LINE
8
0
6
CONTINUOUS
10
159
20
-118
11
159
21
-106
0
LINE
8
0
6
CONTINUOUS
10
156
20
-103
11
144
21
-103
0
LINE
8
0
6
CONTINUOUS
10
141
20
-106
11
141
21
-118
0
LINE
8
0
6
CONTINUOUS
10
163
20
-159
11
175
21
-159
0
LINE
8
0
6
CONTINUOUS
10
178
20
-156
11
178
21
-144
0
LINE
8
0
6
CONTINUOUS
10
175
20
-141
11
163
21
-141
0
LINE
8
0
6
CONTINUOUS
10
160
20
-144
11
160
21
-156
0
LINE
8
0
6
CONTINUOUS
10
163
20
-140
11
175
21
-140
0
LINE
8
0
6
CONTINUOUS
10
178
20
-137
11
178
21
-125
0
LINE
8
0
6
CONTINUOUS
10
175
20
-122
11
163
21
-122
0
LINE
8
0
6
CONTINUOUS
10
160
20
-125
11
160
21
-137
0
LINE
8
0
6
CONTINUOUS
10
163
20
-121
11
175
21
-121
0
LINE
8
0
6
CONTINUOUS
10
178
20
-118
11
178
21
-106
0
LINE
8
0
6
CONTINUOUS
10
175
20
-103
11
163
21
-103
0
LINE
8
0
6
CONTINUOUS
10
160
20
-106
11
160
21
-118
0
LINE
8
0
6
CONTINUOUS
10
182
20
-156.625
11
194
21
-156.625
0
LINE
8
0
6
CONTINUOUS
10
197
20
-153.625
11
197
21
-141.625
0
LINE
8
0
6
CONTINUOUS
10
194
20
-138.625
11
182
21
-138.625
0
LINE
8
0
6
CONTINUOUS
10
179
20
-141.625
11
179
21
-153.625
0
LINE
8
0
6
CONTINUOUS
10
182
20
-137.625
11
194
21
-137.625
0
LINE
8
0
6
CONTINUOUS
10
197
20
-134.625
11
197
21
-122.625
0
LINE
8
0
6
CONTINUOUS
10
194
20
-119.625
11
182
21
-119.625
0
LINE
8
0
6
CONTINUOUS
10
179
20
-122.625
11
179
21
-134.625
0
LINE
8
0
6
CONTINUOUS
10
182
20
-118.625
11
194
21
-118.625
0
LINE
8
0
6
CONTINUOUS
10
197
20
-115.625
11
197
21
-103.625
0
LINE
8
0
6
CONTINUOUS
10
194
20
-100.625
11
182
21
-100.625
0
LINE
8
0
6
CONTINUOUS
10
179
20
-103.625
11
179
21
-115.625
0
LINE
8
0
6
CONTINUOUS
10
201
20
-154.25
11
213
21
-154.25
0
LINE
8
0
6
CONTINUOUS
10
216
20
-151.25
11
216
21
-139.25
0
LINE
8
0
6
CONTINUOUS
10
213
20
-136.25
11
201
21
-136.25
0
LINE
8
0
6
CONTINUOUS
10
198
20
-139.25
11
198
21
-151.25
0
LINE
8
0
6
CONTINUOUS
10
201
20
-135.25
11
213
21
-135.25
0
LINE
8
0
6
CONTINUOUS
10
216
20
-132.25
11
216
21
-120.25
0
LINE
8
0
6
CONTINUOUS
10
213
20
-117.25
11
201
21
-117.25
0
LINE
8
0
6
CONTINUOUS
10
198
20
-120.25
11
198
21
-132.25
0
LINE
8
0
6
CONTINUOUS
10
201
20
-116.25
11
213
21
-116.25
0
LINE
8
0
6
CONTINUOUS
10
216
20
-113.25
11
216
21
-101.25
0
LINE
8
0
6
CONTINUOUS
10
213
20
-98.25
11
201
21
-98.25
0
LINE
8
0
6
CONTINUOUS
10
198
20
-101.25
11
198
21
-113.25
0
LINE
8
0
6
CONTINUOUS
10
220
20
-156.625
11
232
21
-156.625
0
LINE
8
0
6
CONTINUOUS
10
235
20
-153.625
11
235
21
-141.625
0
LINE
8
0
6
CONTINUOUS
10
232
20
-138.625
11
220
21
-138.625
0
LINE
8
0
6
CONTINUOUS
10
217
20
-141.625
11
217
21
-153.625
0
LINE
8
0
6
CONTINUOUS
10
220
20
-137.625
11
232
21
-137.625
0
LINE
8
0
6
CONTINUOUS
10
235
20
-134.625
11
235
21
-122.625
0
LINE
8
0
6
CONTINUOUS
10
232
20
-119.625
11
220
21
-119.625
0
LINE
8
0
6
CONTINUOUS
10
217
20
-122.625
11
217
21
-134.625
0
LINE
8
0
6
CONTINUOUS
10
220
20
-118.625
11
232
21
-118.625
0
LINE
8
0
6
CONTINUOUS
10
235
20
-115.625
11
235
21
-103.625
0
LINE
8
0
6
CONTINUOUS
10
232
20
-100.625
11
220
21
-100.625
0
LINE
8
0
6
CONTINUOUS
10
217
20
-103.625
11
217
21
-115.625
0
LINE
8
0
6
CONTINUOUS
10
239
20
-159
11
251
21
-159
0
LINE
8
0
6
CONTINUOUS
10
254
20
-156
11
254
21
-144
0
LINE
8
0
6
CONTINUOUS
10
251
20
-141
11
239
21
-141
0
LINE
8
0
6
CONTINUOUS
10
236
20
-144
11
236
21
-156
0
LINE
8
0
6
CONTINUOUS
10
239
20
-140
11
251
21
-140
0
LINE
8
0
6
CONTINUOUS
10
254
20
-137
11
254
21
-125
0
LINE
8
0
6
CONTINUOUS
10
251
20
-122
11
239
21
-122
0
LINE
8
0
6
CONTINUOUS
10
236
20
-125
11
236
21
-137
0
LINE
8
0
6
CONTINUOUS
10
239
20
-121
11
251
21
-121
0
LINE
8
0
6
CONTINUOUS
10
254
20
-118
11
254
21
-106
0
LINE
8
0
6
CONTINUOUS
10
251
20
-103
11
239
21
-103
0
LINE
8
0
6
CONTINUOUS
10
236
20
-106
11
236
21
-118
0
LINE
8
0
6
CONTINUOUS
10
201
20
-178
11
213
21
-178
0
LINE
8
0
6
CONTINUOUS
10
216
20
-175
11
216
21
-163
0
LINE
8
0
6
CONTINUOUS
10
213
20
-160
11
201
21
-160
0
LINE
8
0
6
CONTINUOUS
10
198
20
-163
11
198
21
-175
0
LINE
8
0
6
CONTINUOUS
10
220
20
-178
11
232
21
-178
0
LINE
8
0
6
CONTINUOUS
10
235
20
-175
11
235
21
-163
0
LINE
8
0
6
CONTINUOUS
10
232
20
-160
11
220
21
-160
0
LINE
8
0
6
CONTINUOUS
10
217
20
-163
11
217
21
-175
0
LINE
8
0
6
CONTINUOUS
10
239
20
-178
11
251
21
-178
0
LINE
8
0
6
CONTINUOUS
10
254
20
-175
11
254
21
-163
0
LINE
8
0
6
CONTINUOUS
10
251
20
-160
11
239
21
-160
0
LINE
8
0
6
CONTINUOUS
10
236
20
-163
11
236
21
-175
0
LINE
8
0
6
CONTINUOUS
10
258
20
-178
11
270
21
-178
0
LINE
8
0
6
CONTINUOUS
10
273
20
-175
11
273
21
-163
0
LINE
8
0
6
CONTINUOUS
10
270
20
-160
11
258
21
-160
0
LINE
8
0
6
CONTINUOUS
10
255
20
-163
11
255
21
-175
0
LINE
8
0
6
CONTINUOUS
10
258
20
-159
11
270
21
-159
0
LINE
8
0
6
CONTINUOUS
10
273
20
-156
11
273
21
-144
0
LINE
8
0
6
CONTINUOUS
10
270
20
-141
11
258
21
-141
0
LINE
8
0
6
CONTINUOUS
10
255
20
-144
11
255
21
-156
0
ARC
8
0
6
CONTINUOUS
10
156
20
-156
40
3
50
270
51
0
0
ARC
8
0
6
CONTINUOUS
10
156
20
-144
40
3
50
0
51
90
0
ARC
8
0
6
CONTINUOUS
10
144
20
-144
40
3
50
90
51
180
0
ARC
8
0
6
CONTINUOUS
10
144
20
-156
40
3
50
180
51
270
0
ARC
8
0
6
CONTINUOUS
10
156
20
-137
40
3
50
270
51
0
0
ARC
8
0
6
CONTINUOUS
10
156
20
-125
40
3
50
0
51
90
0
ARC
8
0
6
CONTINUOUS
10
144
20
-125
40
3
50
90
51
180
0
ARC
8
0
6
CONTINUOUS
10
144
20
-137
40
3
50
180
51
270
0
ARC
8
0
6
CONTINUOUS
10
156
20
-118
40
3
50
270
51
0
0
ARC
8
0
6
CONTINUOUS
10
156
20
-106
40
3
50
0
51
90
0
ARC
8
0
6
CONTINUOUS
10
144
20
-106
40
3
50
90
51
180
0
ARC
8
0
6
CONTINUOUS
10
144
20
-118
40
3
50
180
51
270
0
ARC
8
0
6
CONTINUOUS
10
175
20
-156
40
3
50
270
51
0
0
ARC
8
0
6
CONTINUOUS
10
175
20
-144
40
3
50
0
51
90
0
ARC
8
0
6
CONTINUOUS
10
163
20
-144
40
3
50
90
51
180
0
ARC
8
0
6
CONTINUOUS
10
163
20
-156
40
3
50
180
51
270
0
ARC
8
0
6
CONTINUOUS
10
175
20
-137
40
3
50
270
51
0
0
ARC
8
0
6
CONTINUOUS
10
175
20
-125
40
3
50
0
51
90
0
ARC
8
0
6
CONTINUOUS
10
163
20
-125
40
3
50
90
51
180
0
ARC
8
0
6
CONTINUOUS
10
163
20
-137
40
3
50
180
51
270
0
ARC
8
0
6
CONTINUOUS
10
175
20
-118
40
3
50
270
51
0
0
ARC
8
0
6
CONTINUOUS
10
175
20
-106
40
3
50
0
51
90
0
ARC
8
0
6
CONTINUOUS
10
163
20
-106
40
3
50
90
51
180
0
ARC
8
0
6
CONTINUOUS
10
163
20
-118
40
3
50
180
51
270
0
ARC
8
0
6
CONTINUOUS
10
194
20
-153.625
40
3
50
270
51
0
0
ARC
8
0
6
CONTINUOUS
10
194
20
-141.625
40
3
50
0
51
90
0
ARC
8
0
6
CONTINUOUS
10
182
20
-141.625
40
3
50
90
51
180
0
ARC
8
0
6
CONTINUOUS
10
182
20
-153.625
40
3
50
180
51
270
0
ARC
8
0
6
CONTINUOUS
10
194
20
-134.625
40
3
50
270
51
0
0
ARC
8
0
6
CONTINUOUS
10
194
20
-122.625
40
3
50
0
51
90
0
ARC
8
0
6
CONTINUOUS
10
182
20
-122.625
40
3
50
90
51
180
0
ARC
8
0
6
CONTINUOUS
10
182
20
-134.625
40
3
50
180
51
270
0
ARC
8
0
6
CONTINUOUS
10
194
20
-115.625
40
3
50
270
51
0
0
ARC
8
0
6
CONTINUOUS
10
194
20
-103.625
40
3
50
0
51
90
0
ARC
8
0
6
CONTINUOUS
10
182
20
-103.625
40
3
50
90
51
180
0
ARC
8
0
6
CONTINUOUS
10
182
20
-115.625
40
3
50
180
51
270
0
ARC
8
0
6
CONTINUOUS
10
213
20
-151.25
40
3
50
270
51
0
0
ARC
8
0
6
CONTINUOUS
10
213
20
-139.25
40
3
50
0
51
90
0
ARC
8
0
6
CONTINUOUS
10
201
20
-139.25
40
3
50
90
51
180
0
ARC
8
0
6
CONTINUOUS
10
201
20
-151.25
40
3
50
180
51
270
0
ARC
8
0
6
CONTINUOUS
10
213
20
-132.25
40
3
50
270
51
0
0
ARC
8
0
6
CONTINUOUS
10
213
20
-120.25
40
3
50
0
51
90
0
ARC
8
0
6
CONTINUOUS
10
201
20
-120.25
40
3
50
90
51
180
0
ARC
8
0
6
CONTINUOUS
10
201
20
-132.25
40
3
50
180
51
270
0
ARC
8
0
6
CONTINUOUS
10
213
20
-113.25
40
3
50
270
51
0
0
ARC
8
0
6
CONTINUOUS
10
213
20
-101.25
40
3
50
0
51
90
0
ARC
8
0
6
CONTINUOUS
10
201
20
-101.25
40
3
50
90
51
180
0
ARC
8
0
6
CONTINUOUS
10
201
20
-113.25
40
3
50
180
51
270
0
ARC
8
0
6
CONTINUOUS
10
232
20
-153.625
40
3
50
270
51
0
0
ARC
8
0
6
CONTINUOUS
10
232
20
-141.625
40
3
50
0
51
90
0
ARC
8
0
6
CONTINUOUS
10
220
20
-141.625
40
3
50
90
51
180
0
ARC
8
0
6
CONTINUOUS
10
220
20
-153.625
40
3
50
180
51
270
0
ARC
8
0
6
CONTINUOUS
10
232
20
-134.625
40
3
50
270
51
0
0
ARC
8
0
6
CONTINUOUS
10
232
20
-122.625
40
3
50
0
51
90
0
ARC
8
0
6
CONTINUOUS
10
220
20
-122.625
40
3
50
90
51
180
0
ARC
8
0
6
CONTINUOUS
10
220
20
-134.625
40
3
50
180
51
270
0
ARC
8
0
6
CONTINUOUS
10
232
20
-115.625
40
3
50
270
51
0
0
ARC
8
0
6
CONTINUOUS
10
232
20
-103.625
40
3
50
0
51
90
0
ARC
8
0
6
CONTINUOUS
10
220
20
-103.625
40
3
50
90
51
180
0
ARC
8
0
6
CONTINUOUS
10
220
20
-115.625
40
3
50
180
51
270
0
ARC
8
0
6
CONTINUOUS
10
251
20
-156
40
3
50
270
51
0
0
ARC
8
0
6
CONTINUOUS
10
251
20
-144
40
3
50
0
51
90
0
ARC
8
0
6
CONTINUOUS
10
239
20
-144
40
3
50
90
51
180
0
ARC
8
0
6
CONTINUOUS
10
239
20
-156
40
3
50
180
51
270
0
ARC
8
0
6
CONTINUOUS
10
251
20
-137
40
3
50
270
51
0
0
ARC
8
0
6
CONTINUOUS
10
251
20
-125
40
3
50
0
51
90
0
ARC
8
0
6
CONTINUOUS
10
239
20
-125
40
3
50
90
51
180
0
ARC
8
0
6
CONTINUOUS
10
239
20
-137
40
3
50
180
51
270
0
ARC
8
0
6
CONTINUOUS
10
251
20
-118
40
3
50
270
51
0
0
ARC
8
0
6
CONTINUOUS
10
251
20
-106
40
3
50
0
51
90
0
ARC
8
0
6
CONTINUOUS
10
239
20
-106
40
3
50
90
51
180
0
ARC
8
0
6
CONTINUOUS
10
239
20
-118
40
3
50
180
51
270
0
ARC
8
0
6
CONTINUOUS
10
213
20
-175
40
3
50
270
51
0
0
ARC
8
0
6
CONTINUOUS
10
213
20
-163
40
3
50
0
51
90
0
ARC
8
0
6
CONTINUOUS
10
201
20
-163
40
3
50
90
51
180
0
ARC
8
0
6
CONTINUOUS
10
201
20
-175
40
3
50
180
51
270
0
ARC
8
0
6
CONTINUOUS
10
232
20
-175
40
3
50
270
51
0
0
ARC
8
0
6
CONTINUOUS
10
232
20
-163
40
3
50
0
51
90
0
ARC
8
0
6
CONTINUOUS
10
220
20
-163
40
3
50
90
51
180
0
ARC
8
0
6
CONTINUOUS
10
220
20
-175
40
3
50
180
51
270
0
ARC
8
0
6
CONTINUOUS
10
251
20
-175
40
3
50
270
51
0
0
ARC
8
0
6
CONTINUOUS
10
251
20
-163
40
3
50
0
51
90
0
ARC
8
0
6
CONTINUOUS
10
239
20
-163
40
3
50
90
51
180
0
ARC
8
0
6
CONTINUOUS
10
239
20
-175
40
3
50
180
51
270
0
ARC
8
0
6
CONTINUOUS
10
270
20
-175
40
3
50
270
51
0
0
ARC
8
0
6
CONTINUOUS
10
270
20
-163
40
3
50
0
51
90
0
ARC
8
0
6
CONTINUOUS
10
258
20
-163
40
3
50
90
51
180
0
ARC
8
0
6
CONTINUOUS
10
258
20
-175
40
3
50
180
51
270
0
ARC
8
0
6
CONTINUOUS
10
270
20
-156
40
3
50
270
51
0
0
ARC
8
0
6
CONTINUOUS
10
270
20
-144
40
3
50
0
51
90
0
ARC
8
0
6
CONTINUOUS
10
258
20
-144
40
3
50
90
51
180
0
ARC
8
0
6
CONTINUOUS
10
258
20
-156
40
3
50
180
51
270
0
LINE
8
0
6
CONTINUOUS
10
257
20
-126
11
275
21
-126
0
LINE
8
0
6
CONTINUOUS
10
275
20
-126
11
275
21
-102.5
0
LINE
8
0
6
CONTINUOUS
10
275
20
-102.5
11
257
21
-102.5
0
LINE
8
0
6
CONTINUOUS
10
257
20
-102.5
11
257
21
-126
0
CIRCLE
8
0
6
CONTINUOUS
10
159.5
20
-121.5
40
2.15
0
CIRCLE
8
0
6
CONTINUOUS
10
159.5
20
-140.5
40
2.15
0
CIRCLE
8
0
6
CONTINUOUS
10
253
20
-101.25
40
2.15
0
CIRCLE
8
0
6
CONTINUOUS
10
254.5
20
-159.5
40
2.15
0
LINE
8
0
6
CONTINUOUS
10
261
20
-133
11
275
21
-133
0
LINE
8
0
6
CONTINUOUS
10
275
20
-133
11
275
21
-127
0
LINE
8
0
6
CONTINUOUS
10
275
20
-127
11
261
21
-127
0
LINE
8
0
6
CONTINUOUS
10
261
20
-127
11
261
21
-133
0
ENDSEC
0
EOF