0
SECTION
2
HEADER
9
$INSUNITS
70
4
0
ENDSEC
0
SECTION
2
TABLES
0
TABLE
2
LTYPE
0
LTYPE
72
65
70
0
2
CONTINUOUS
3
______
73
0
40
0
0
LTYPE
72
65
70
0
2
DASHED
3
_ _ _ 
73
2
40
7.5
49
5
49
-2.5
0
LTYPE
72
65
70
0
2
DOTTED
3
. . . 
73
2
40
1.5
49
0.5
49
-1
0
ENDTAB
0
TABLE
2
LAYER
0
ENDTAB
0
ENDSEC
0
SECTION
2
ENTITIES
0
LINE
8
0
6
CONTINUOUS
10
-10
20
48
11
28
21
48
0
LINE
8
0
6
CONTINUOUS
10
28
20
48
11
28
21
52.75
0
LINE
8
0
6
CONTINUOUS
10
28
20
52.75
11
47
21
52.75
0
LINE
8
0
6
CONTINUOUS
10
47
20
52.75
11
47
21
57.5
0
LINE
8
0
6
CONTINUOUS
10
47
20
57.5
11
67
21
57.5
0
LINE
8
0
6
CONTINUOUS
10
67
20
57.5
11
67
21
52.75
0
LINE
8
0
6
CONTINUOUS
10
67
20
52.75
11
129
21
52.75
0
LINE
8
0
6
CONTINUOUS
10
129
20
52.75
11
129
21
-6
0
LINE
8
0
6
CONTINUOUS
10
129
20
-6
11
136.9764089
21
-10.90839
0
LINE
8
0
6
CONTINUOUS
10
136.9764089
20
-10.90839
11
152.3477318
21
-22.0763098
0
LINE
8
0
6
CONTINUOUS
10
152.3477318
20
-22.0763098
11
129.4241069
21
-53.6279726
0
LINE
8
0
6
CONTINUOUS
10
129.4241069
20
-53.6279726
11
113.243767
21
-41.8722675
0
LINE
8
0
6
CONTINUOUS
10
113.243767
20
-41.8722675
11
95.9246634
21
-34.2870598
0
LINE
8
0
6
CONTINUOUS
10
95.9246634
20
-34.2870598
11
77.4069704
21
-30.4684513
0
LINE
8
0
6
CONTINUOUS
10
77.4069704
20
-30.4684513
11
39.5
21
-30.5833333
0
LINE
8
0
6
CONTINUOUS
10
39.5
20
-30.5833333
11
39.5
21
-10.5833333
0
LINE
8
0
6
CONTINUOUS
10
39.5
20
-10.5833333
11
-10
21
-10.5833333
0
LINE
8
0
6
CONTINUOUS
10
-10
20
-10.5833333
11
-10
21
48
0
LINE
8
0
6
CONTINUOUS
10
-6
20
-9
11
6
21
-9
0
LINE
8
0
6
CONTINUOUS
10
9
20
-6
11
9
21
6
0
LINE
8
0
6
CONTINUOUS
10
6
20
9
11
-6
21
9
0
LINE
8
0
6
CONTINUOUS
10
-9
20
6
11
-9
21
-6
0
LINE
8
0
6
CONTINUOUS
10
-6
20
10
11
6
21
10
0
LINE
8
0
6
CONTINUOUS
10
9
20
13
11
9
21
25
0
LINE
8
0
6
CONTINUOUS
10
6
20
28
11
-6
21
28
0
LINE
8
0
6
CONTINUOUS
10
-9
20
25
11
-9
21
13
0
LINE
8
0
6
CONTINUOUS
10
-6
20
29
11
6
21
29
0
LINE
8
0
6
CONTINUOUS
10
9
20
32
11
9
21
44
0
LINE
8
0
6
CONTINUOUS
10
6
20
47
11
-6
21
47
0
LINE
8
0
6
CONTINUOUS
10
-9
20
44
11
-9
21
32
0
LINE
8
0
6
CONTINUOUS
10
13
20
-9
11
25
21
-9
0
LINE
8
0
6
CONTINUOUS
10
28
20
-6
11
28
21
6
0
LINE
8
0
6
CONTINUOUS
10
25
20
9
11
13
21
9
0
LINE
8
0
6
CONTINUOUS
10
10
20
6
11
10
21
-6
0
LINE
8
0
6
CONTINUOUS
10
13
20
10
11
25
21
10
0
LINE
8
0
6
CONTINUOUS
10
28
20
13
11
28
21
25
0
LINE
8
0
6
CONTINUOUS
10
25
20
28
11
13
21
28
0
LINE
8
0
6
CONTINUOUS
10
10
20
25
11
10
21
13
0
LINE
8
0
6
CONTINUOUS
10
13
20
29
11
25
21
29
0
LINE
8
0
6
CONTINUOUS
10
28
20
32
11
28
21
44
0
LINE
8
0
6
CONTINUOUS
10
25
20
47
11
13
21
47
0
LINE
8
0
6
CONTINUOUS
10
10
20
44
11
10
21
32
0
LINE
8
0
6
CONTINUOUS
10
32
20
-4.25
11
44
21
-4.25
0
LINE
8
0
6
CONTINUOUS
10
47
20
-1.25
11
47
21
10.75
0
LINE
8
0
6
CONTINUOUS
10
44
20
13.75
11
32
21
13.75
0
LINE
8
0
6
CONTINUOUS
10
29
20
10.75
11
29
21
-1.25
0
LINE
8
0
6
CONTINUOUS
10
32
20
14.75
11
44
21
14.75
0
LINE
8
0
6
CONTINUOUS
10
47
20
17.75
11
47
21
29.75
0
LINE
8
0
6
CONTINUOUS
10
44
20
32.75
11
32
21
32.75
0
LINE
8
0
6
CONTINUOUS
10
29
20
29.75
11
29
21
17.75
0
LINE
8
0
6
CONTINUOUS
10
32
20
33.75
11
44
21
33.75
0
LINE
8
0
6
CONTINUOUS
10
47
20
36.75
11
47
21
48.75
0
LINE
8
0
6
CONTINUOUS
10
44
20
51.75
11
32
21
51.75
0
LINE
8
0
6
CONTINUOUS
10
29
20
48.75
11
29
21
36.75
0
LINE
8
0
6
CONTINUOUS
10
51
20
0.5
11
63
21
0.5
0
LINE
8
0
6
CONTINUOUS
10
66
20
3.5
11
66
21
15.5
0
LINE
8
0
6
CONTINUOUS
10
63
20
18.5
11
51
21
18.5
0
LINE
8
0
6
CONTINUOUS
10
48
20
15.5
11
48
21
3.5
0
LINE
8
0
6
CONTINUOUS
10
51
20
19.5
11
63
21
19.5
0
LINE
8
0
6
CONTINUOUS
10
66
20
22.5
11
66
21
34.5
0
LINE
8
0
6
CONTINUOUS
10
63
20
37.5
11
51
21
37.5
0
LINE
8
0
6
CONTINUOUS
10
48
20
34.5
11
48
21
22.5
0
LINE
8
0
6
CONTINUOUS
10
51
20
38.5
11
63
21
38.5
0
LINE
8
0
6
CONTINUOUS
10
66
20
41.5
11
66
21
53.5
0
LINE
8
0
6
CONTINUOUS
10
63
20
56.5
11
51
21
56.5
0
LINE
8
0
6
CONTINUOUS
10
48
20
53.5
11
48
21
41.5
0
LINE
8
0
6
CONTINUOUS
10
70
20
-4.25
11
82
21
-4.25
0
LINE
8
0
6
CONTINUOUS
10
85
20
-1.25
11
85
21
10.75
0
LINE
8
0
6
CONTINUOUS
10
82
20
13.75
11
70
21
13.75
0
LINE
8
0
6
CONTINUOUS
10
67
20
10.75
11
67
21
-1.25
0
LINE
8
0
6
CONTINUOUS
10
70
20
14.75
11
82
21
14.75
0
LINE
8
0
6
CONTINUOUS
10
85
20
17.75
11
85
21
29.75
0
LINE
8
0
6
CONTINUOUS
10
82
20
32.75
11
70
21
32.75
0
LINE
8
0
6
CONTINUOUS
10
67
20
29.75
11
67
21
17.75
0
LINE
8
0
6
CONTINUOUS
10
70
20
33.75
11
82
21
33.75
0
LINE
8
0
6
CONTINUOUS
10
85
20
36.75
11
85
21
48.75
0
LINE
8
0
6
CONTINUOUS
10
82
20
51.75
11
70
21
51.75
0
LINE
8
0
6
CONTINUOUS
10
67
20
48.75
11
67
21
36.75
0
LINE
8
0
6
CONTINUOUS
10
89
20
-9
11
101
21
-9
0
LINE
8
0
6
CONTINUOUS
10
104
20
-6
11
104
21
6
0
LINE
8
0
6
CONTINUOUS
10
101
20
9
11
89
21
9
0
LINE
8
0
6
CONTINUOUS
10
86
20
6
11
86
21
-6
0
LINE
8
0
6
CONTINUOUS
10
89
20
10
11
101
21
10
0
LINE
8
0
6
CONTINUOUS
10
104
20
13
11
104
21
25
0
LINE
8
0
6
CONTINUOUS
10
101
20
28
11
89
21
28
0
LINE
8
0
6
CONTINUOUS
10
86
20
25
11
86
21
13
0
LINE
8
0
6
CONTINUOUS
10
89
20
29
11
101
21
29
0
LINE
8
0
6
CONTINUOUS
10
104
20
32
11
104
21
44
0
LINE
8
0
6
CONTINUOUS
10
101
20
47
11
89
21
47
0
LINE
8
0
6
CONTINUOUS
10
86
20
44
11
86
21
32
0
LINE
8
0
6
CONTINUOUS
10
43.5
20
-29.5833333
11
55.5
21
-29.5833333
0
LINE
8
0
6
CONTINUOUS
10
58.5
20
-26.5833333
11
58.5
21
-14.5833333
0
LINE
8
0
6
CONTINUOUS
10
55.5
20
-11.5833333
11
43.5
21
-11.5833333
0
LINE
8
0
6
CONTINUOUS
10
40.5
20
-14.5833333
11
40.5
21
-26.5833333
0
LINE
8
0
6
CONTINUOUS
10
62.5
20
-29.5833333
11
74.5
21
-29.5833333
0
LINE
8
0
6
CONTINUOUS
10
77.5
20
-26.5833333
11
77.5
21
-14.5833333
0
LINE
8
0
6
CONTINUOUS
10
74.5
20
-11.5833333
11
62.5
21
-11.5833333
0
LINE
8
0
6
CONTINUOUS
10
59.5
20
-14.5833333
11
59.5
21
-26.5833333
0
LINE
8
0
6
CONTINUOUS
10
81.5274725
20
-30.3219505
11
93.2652437
21
-32.8168907
0
LINE
8
0
6
CONTINUOUS
10
96.8234216
20
-30.506183
11
99.3183618
21
-18.7684118
0
LINE
8
0
6
CONTINUOUS
10
97.0076541
20
-15.2102339
11
85.2698829
21
-12.7152937
0
LINE
8
0
6
CONTINUOUS
10
81.711705
20
-15.0260014
11
79.2167648
21
-26.7637726
0
LINE
8
0
6
CONTINUOUS
10
99.985582
20
-35.000461
11
110.9481275
21
-39.8813007
0
LINE
8
0
6
CONTINUOUS
10
114.9089737
20
-38.3608741
11
119.7898134
21
-27.3983286
0
LINE
8
0
6
CONTINUOUS
10
118.2693868
20
-23.4374824
11
107.3068413
21
-18.5566427
0
LINE
8
0
6
CONTINUOUS
10
103.3459951
20
-20.0770693
11
98.4651554
21
-31.0396148
0
LINE
8
0
6
CONTINUOUS
10
107.7135782
20
-17.6430973
11
118.6761237
21
-22.523937
0
LINE
8
0
6
CONTINUOUS
10
122.6369699
20
-21.0035104
11
127.5178096
21
-10.0409649
0
LINE
8
0
6
CONTINUOUS
10
125.997383
20
-6.0801187
11
115.0348375
21
-1.199279
0
LINE
8
0
6
CONTINUOUS
10
111.0739913
20
-2.7197056
11
106.1931516
21
-13.6822511
0
LINE
8
0
6
CONTINUOUS
10
117.0676202
20
-43.4143915
11
126.7758241
21
-50.4678145
0
LINE
8
0
6
CONTINUOUS
10
130.9662309
20
-49.8041194
11
138.0196539
21
-40.0959155
0
LINE
8
0
6
CONTINUOUS
10
137.3559588
20
-35.9055087
11
127.6477549
21
-28.8520857
0
LINE
8
0
6
CONTINUOUS
10
123.4573481
20
-29.5157808
11
116.4039251
21
-39.2239847
0
LINE
8
0
6
CONTINUOUS
10
128.23554
20
-28.0430686
11
137.9437439
21
-35.0964916
0
LINE
8
0
6
CONTINUOUS
10
142.1341507
20
-34.4327965
11
149.1875737
21
-24.7245926
0
LINE
8
0
6
CONTINUOUS
10
148.5238786
20
-20.5341858
11
138.8156747
21
-13.4807628
0
LINE
8
0
6
CONTINUOUS
10
134.6252679
20
-14.1444579
11
127.5718449
21
-23.8526618
0
ARC
8
0
6
CONTINUOUS
10
6
20
-6
40
3
50
270
51
0
0
ARC
8
0
6
CONTINUOUS
10
6
20
6
40
3
50
0
51
90
0
ARC
8
0
6
CONTINUOUS
10
-6
20
6
40
3
50
90
51
180
0
ARC
8
0
6
CONTINUOUS
10
-6
20
-6
40
3
50
180
51
270
0
ARC
8
0
6
CONTINUOUS
10
6
20
13
40
3
50
270
51
0
0
ARC
8
0
6
CONTINUOUS
10
6
20
25
40
3
50
0
51
90
0
ARC
8
0
6
CONTINUOUS
10
-6
20
25
40
3
50
90
51
180
0
ARC
8
0
6
CONTINUOUS
10
-6
20
13
40
3
50
180
51
270
0
ARC
8
0
6
CONTINUOUS
10
6
20
32
40
3
50
270
51
0
0
ARC
8
0
6
CONTINUOUS
10
6
20
44
40
3
50
0
51
90
0
ARC
8
0
6
CONTINUOUS
10
-6
20
44
40
3
50
90
51
180
0
ARC
8
0
6
CONTINUOUS
10
-6
20
32
40
3
50
180
51
270
0
ARC
8
0
6
CONTINUOUS
10
25
20
-6
40
3
50
270
51
0
0
ARC
8
0
6
CONTINUOUS
10
25
20
6
40
3
50
0
51
90
0
ARC
8
0
6
CONTINUOUS
10
13
20
6
40
3
50
90
51
180
0
ARC
8
0
6
CONTINUOUS
10
13
20
-6
40
3
50
180
51
270
0
ARC
8
0
6
CONTINUOUS
10
25
20
13
40
3
50
270
51
0
0
ARC
8
0
6
CONTINUOUS
10
25
20
25
40
3
50
0
51
90
0
ARC
8
0
6
CONTINUOUS
10
13
20
25
40
3
50
90
51
180
0
ARC
8
0
6
CONTINUOUS
10
13
20
13
40
3
50
180
51
270
0
ARC
8
0
6
CONTINUOUS
10
25
20
32
40
3
50
270
51
0
0
ARC
8
0
6
CONTINUOUS
10
25
20
44
40
3
50
0
51
90
0
ARC
8
0
6
CONTINUOUS
10
13
20
44
40
3
50
90
51
180
0
ARC
8
0
6
CONTINUOUS
10
13
20
32
40
3
50
180
51
270
0
ARC
8
0
6
CONTINUOUS
10
44
20
-1.25
40
3
50
270
51
0
0
ARC
8
0
6
CONTINUOUS
10
44
20
10.75
40
3
50
0
51
90
0
ARC
8
0
6
CONTINUOUS
10
32
20
10.75
40
3
50
90
51
180
0
ARC
8
0
6
CONTINUOUS
10
32
20
-1.25
40
3
50
180
51
270
0
ARC
8
0
6
CONTINUOUS
10
44
20
17.75
40
3
50
270
51
0
0
ARC
8
0
6
CONTINUOUS
10
44
20
29.75
40
3
50
0
51
90
0
ARC
8
0
6
CONTINUOUS
10
32
20
29.75
40
3
50
90
51
180
0
ARC
8
0
6
CONTINUOUS
10
32
20
17.75
40
3
50
180
51
270
0
ARC
8
0
6
CONTINUOUS
10
44
20
36.75
40
3
50
270
51
0
0
ARC
8
0
6
CONTINUOUS
10
44
20
48.75
40
3
50
0
51
90
0
ARC
8
0
6
CONTINUOUS
10
32
20
48.75
40
3
50
90
51
180
0
ARC
8
0
6
CONTINUOUS
10
32
20
36.75
40
3
50
180
51
270
0
ARC
8
0
6
CONTINUOUS
10
63
20
3.5
40
3
50
270
51
0
0
ARC
8
0
6
CONTINUOUS
10
63
20
15.5
40
3
50
0
51
90
0
ARC
8
0
6
CONTINUOUS
10
51
20
15.5
40
3
50
90
51
180
0
ARC
8
0
6
CONTINUOUS
10
51
20
3.5
40
3
50
180
51
270
0
ARC
8
0
6
CONTINUOUS
10
63
20
22.5
40
3
50
270
51
0
0
ARC
8
0
6
CONTINUOUS
10
63
20
34.5
40
3
50
0
51
90
0
ARC
8
0
6
CONTINUOUS
10
51
20
34.5
40
3
50
90
51
180
0
ARC
8
0
6
CONTINUOUS
10
51
20
22.5
40
3
50
180
51
270
0
ARC
8
0
6
CONTINUOUS
10
63
20
41.5
40
3
50
270
51
0
0
ARC
8
0
6
CONTINUOUS
10
63
20
53.5
40
3
50
0
51
90
0
ARC
8
0
6
CONTINUOUS
10
51
20
53.5
40
3
50
90
51
180
0
ARC
8
0
6
CONTINUOUS
10
51
20
41.5
40
3
50
180
51
270
0
ARC
8
0
6
CONTINUOUS
10
82
20
-1.25
40
3
50
270
51
0
0
ARC
8
0
6
CONTINUOUS
10
82
20
10.75
40
3
50
0
51
90
0
ARC
8
0
6
CONTINUOUS
10
70
20
10.75
40
3
50
90
51
180
0
ARC
8
0
6
CONTINUOUS
10
70
20
-1.25
40
3
50
180
51
270
0
ARC
8
0
6
CONTINUOUS
10
82
20
17.75
40
3
50
270
51
0
0
ARC
8
0
6
CONTINUOUS
10
82
20
29.75
40
3
50
0
51
90
0
ARC
8
0
6
CONTINUOUS
10
70
20
29.75
40
3
50
90
51
180
0
ARC
8
0
6
CONTINUOUS
10
70
20
17.75
40
3
50
180
51
270
0
ARC
8
0
6
CONTINUOUS
10
82
20
36.75
40
3
50
270
51
0
0
ARC
8
0
6
CONTINUOUS
10
82
20
48.75
40
3
50
0
51
90
0
ARC
8
0
6
CONTINUOUS
10
70
20
48.75
40
3
50
90
51
180
0
ARC
8
0
6
CONTINUOUS
10
70
20
36.75
40
3
50
180
51
270
0
ARC
8
0
6
CONTINUOUS
10
101
20
-6
40
3
50
270
51
0
0
ARC
8
0
6
CONTINUOUS
10
101
20
6
40
3
50
0
51
90
0
ARC
8
0
6
CONTINUOUS
10
89
20
6
40
3
50
90
51
180
0
ARC
8
0
6
CONTINUOUS
10
89
20
-6
40
3
50
180
51
270
0
ARC
8
0
6
CONTINUOUS
10
101
20
13
40
3
50
270
51
0
0
ARC
8
0
6
CONTINUOUS
10
101
20
25
40
3
50
0
51
90
0
ARC
8
0
6
CONTINUOUS
10
89
20
25
40
3
50
90
51
180
0
ARC
8
0
6
CONTINUOUS
10
89
20
13
40
3
50
180
51
270
0
ARC
8
0
6
CONTINUOUS
10
101
20
32
40
3
50
270
51
0
0
ARC
8
0
6
CONTINUOUS
10
101
20
44
40
3
50
0
51
90
0
ARC
8
0
6
CONTINUOUS
10
89
20
44
40
3
50
90
51
180
0
ARC
8
0
6
CONTINUOUS
10
89
20
32
40
3
50
180
51
270
0
ARC
8
0
6
CONTINUOUS
10
55.5
20
-26.5833333
40
3
50
270
51
0
0
ARC
8
0
6
CONTINUOUS
10
55.5
20
-14.5833333
40
3
50
0
51
90
0
ARC
8
0
6
CONTINUOUS
10
43.5
20
-14.5833333
40
3
50
90
51
180
0
ARC
8
0
6
CONTINUOUS
10
43.5
20
-26.5833333
40
3
50
180
51
270
0
ARC
8
0
6
CONTINUOUS
10
74.5
20
-26.5833333
40
3
50
270
51
0
0
ARC
8
0
6
CONTINUOUS
10
74.5
20
-14.5833333
40
3
50
0
51
90
0
ARC
8
0
6
CONTINUOUS
10
62.5
20
-14.5833333
40
3
50
90
51
180
0
ARC
8
0
6
CONTINUOUS
10
62.5
20
-26.5833333
40
3
50
180
51
270
0
ARC
8
0
6
CONTINUOUS
10
93.8889788
20
-29.8824479
40
3
50
257.9999995
51
347.9999995
0
ARC
8
0
6
CONTINUOUS
10
96.383919
20
-18.1446767
40
3
50
347.9999995
51
77.9999995
0
ARC
8
0
6
CONTINUOUS
10
84.6461478
20
-15.6497365
40
3
50
77.9999995
51
167.9999995
0
ARC
8
0
6
CONTINUOUS
10
82.1512076
20
-27.3875077
40
3
50
167.9999995
51
257.9999995
0
ARC
8
0
6
CONTINUOUS
10
128.53918
20
-48.0407635
40
3
50
233.999998
51
323.999998
0
ARC
8
0
6
CONTINUOUS
10
135.5926029
20
-38.3325596
40
3
50
323.999998
51
53.999998
0
ARC
8
0
6
CONTINUOUS
10
125.884399
20
-31.2791367
40
3
50
53.999998
51
143.999998
0
ARC
8
0
6
CONTINUOUS
10
118.8309761
20
-40.9873406
40
3
50
143.999998
51
233.999998
0
ARC
8
0
6
CONTINUOUS
10
139.7070998
20
-32.6694406
40
3
50
233.999998
51
323.999998
0
ARC
8
0
6
CONTINUOUS
10
146.7605227
20
-22.9612367
40
3
50
323.999998
51
53.999998
0
ARC
8
0
6
CONTINUOUS
10
137.0523188
20
-15.9078138
40
3
50
53.999998
51
143.999998
0
ARC
8
0
6
CONTINUOUS
10
129.9988959
20
-25.6160177
40
3
50
143.999998
51
233.999998
0
ARC
8
0
6
CONTINUOUS
10
119.8963335
20
-19.7833006
40
3
50
246.0000032
51
336.0000032
0
ARC
8
0
6
CONTINUOUS
10
124.7771732
20
-8.8207551
40
3
50
336.0000032
51
66.0000032
0
ARC
8
0
6
CONTINUOUS
10
113.8146277
20
-3.9399154
40
3
50
66.0000032
51
156.0000032
0
ARC
8
0
6
CONTINUOUS
10
108.933788
20
-14.9024609
40
3
50
156.0000032
51
246.0000032
0
ARC
8
0
6
CONTINUOUS
10
112.1683373
20
-37.1406643
40
3
50
246.0000032
51
336.0000032
0
ARC
8
0
6
CONTINUOUS
10
117.049177
20
-26.1781188
40
3
50
336.0000032
51
66.0000032
0
ARC
8
0
6
CONTINUOUS
10
106.0866315
20
-21.2972791
40
3
50
66.0000032
51
156.0000032
0
ARC
8
0
6
CONTINUOUS
10
101.2057918
20
-32.2598246
40
3
50
156.0000032
51
246.0000032
0
LINE
8
0
6
CONTINUOUS
10
106.5
20
0.5
11
127.5
21
0.5
0
LINE
8
0
6
CONTINUOUS
10
127.5
20
0.5
11
127.5
21
51.5
0
LINE
8
0
6
CONTINUOUS
10
127.5
20
51.5
11
106.5
21
51.5
0
LINE
8
0
6
CONTINUOUS
10
106.5
20
51.5
11
106.5
21
0.5
0
CIRCLE
8
0
6
CONTINUOUS
10
85.5
20
30.875
40
2.15
0
CIRCLE
8
0
6
CONTINUOUS
10
57
20
-6
40
2.15
0
CIRCLE
8
0
6
CONTINUOUS
10
123.393616
20
-25.3912638
40
2.15
0
CIRCLE
8
0
6
CONTINUOUS
10
9.5
20
28.5
40
2.15
0
CIRCLE
8
0
6
CONTINUOUS
10
9.5
20
9.5
40
2.15
0
ENDSEC
0
EOF