0
SECTION
2
HEADER
9
$INSUNITS
70
4
0
ENDSEC
0
SECTION
2
TABLES
0
TABLE
2
LTYPE
0
LTYPE
72
65
70
0
2
CONTINUOUS
3
______
73
0
40
0
0
LTYPE
72
65
70
0
2
DASHED
3
_ _ _ 
73
2
40
7.5
49
5
49
-2.5
0
LTYPE
72
65
70
0
2
DOTTED
3
. . . 
73
2
40
1.5
49
0.5
49
-1
0
ENDTAB
0
TABLE
2
LAYER
0
ENDTAB
0
ENDSEC
0
SECTION
2
ENTITIES
0
LINE
8
0
6
CONTINUOUS
10
139.75
20
-101.75
11
177.75
21
-101.75
0
LINE
8
0
6
CONTINUOUS
10
177.75
20
-101.75
11
177.75
21
-99.375
0
LINE
8
0
6
CONTINUOUS
10
177.75
20
-99.375
11
196.75
21
-99.375
0
LINE
8
0
6
CONTINUOUS
10
196.75
20
-99.375
11
196.75
21
-97
0
LINE
8
0
6
CONTINUOUS
10
196.75
20
-97
11
217.25
21
-97
0
LINE
8
0
6
CONTINUOUS
10
217.25
20
-97
11
217.25
21
-99.375
0
LINE
8
0
6
CONTINUOUS
10
217.25
20
-99.375
11
276.64
21
-99.375
0
LINE
8
0
6
CONTINUOUS
10
276.64
20
-99.375
11
276.64
21
-152.7800701
0
LINE
8
0
6
CONTINUOUS
10
276.64
20
-152.7800701
11
285.3256094
21
-158.3947488
0
LINE
8
0
6
CONTINUOUS
10
285.3256094
20
-158.3947488
11
300.6969323
21
-169.5626685
0
LINE
8
0
6
CONTINUOUS
10
300.6969323
20
-169.5626685
11
277.4794149
21
-201.5188398
0
LINE
8
0
6
CONTINUOUS
10
277.4794149
20
-201.5188398
11
260.8945665
21
-189.4692422
0
LINE
8
0
6
CONTINUOUS
10
260.8945665
20
-189.4692422
11
243.5945929
21
-181.9554287
0
LINE
8
0
6
CONTINUOUS
10
243.5945929
20
-181.9554287
11
225.1104556
21
-178.202677
0
LINE
8
0
6
CONTINUOUS
10
225.1104556
20
-178.202677
11
187.25
21
-178.375
0
LINE
8
0
6
CONTINUOUS
10
187.25
20
-178.375
11
187.25
21
-160.125
0
LINE
8
0
6
CONTINUOUS
10
187.25
20
-160.125
11
139.75
21
-160.125
0
LINE
8
0
6
CONTINUOUS
10
139.75
20
-160.125
11
139.75
21
-101.75
0
LINE
8
0
6
CONTINUOUS
10
144
20
-159
11
156
21
-159
0
LINE
8
0
6
CONTINUOUS
10
159
20
-156
11
159
21
-144
0
LINE
8
0
6
CONTINUOUS
10
156
20
-141
11
144
21
-141
0
LINE
8
0
6
CONTINUOUS
10
141
20
-144
11
141
21
-156
0
LINE
8
0
6
CONTINUOUS
10
144
20
-140
11
156
21
-140
0
LINE
8
0
6
CONTINUOUS
10
159
20
-137
11
159
21
-125
0
LINE
8
0
6
CONTINUOUS
10
156
20
-122
11
144
21
-122
0
LINE
8
0
6
CONTINUOUS
10
141
20
-125
11
141
21
-137
0
LINE
8
0
6
CONTINUOUS
10
144
20
-121
11
156
21
-121
0
LINE
8
0
6
CONTINUOUS
10
159
20
-118
11
159
21
-106
0
LINE
8
0
6
CONTINUOUS
10
156
20
-103
11
144
21
-103
0
LINE
8
0
6
CONTINUOUS
10
141
20
-106
11
141
21
-118
0
LINE
8
0
6
CONTINUOUS
10
163
20
-159
11
175
21
-159
0
LINE
8
0
6
CONTINUOUS
10
178
20
-156
11
178
21
-144
0
LINE
8
0
6
CONTINUOUS
10
175
20
-141
11
163
21
-141
0
LINE
8
0
6
CONTINUOUS
10
160
20
-144
11
160
21
-156
0
LINE
8
0
6
CONTINUOUS
10
163
20
-140
11
175
21
-140
0
LINE
8
0
6
CONTINUOUS
10
178
20
-137
11
178
21
-125
0
LINE
8
0
6
CONTINUOUS
10
175
20
-122
11
163
21
-122
0
LINE
8
0
6
CONTINUOUS
10
160
20
-125
11
160
21
-137
0
LINE
8
0
6
CONTINUOUS
10
163
20
-121
11
175
21
-121
0
LINE
8
0
6
CONTINUOUS
10
178
20
-118
11
178
21
-106
0
LINE
8
0
6
CONTINUOUS
10
175
20
-103
11
163
21
-103
0
LINE
8
0
6
CONTINUOUS
10
160
20
-106
11
160
21
-118
0
LINE
8
0
6
CONTINUOUS
10
182
20
-156.625
11
194
21
-156.625
0
LINE
8
0
6
CONTINUOUS
10
197
20
-153.625
11
197
21
-141.625
0
LINE
8
0
6
CONTINUOUS
10
194
20
-138.625
11
182
21
-138.625
0
LINE
8
0
6
CONTINUOUS
10
179
20
-141.625
11
179
21
-153.625
0
LINE
8
0
6
CONTINUOUS
10
182
20
-137.625
11
194
21
-137.625
0
LINE
8
0
6
CONTINUOUS
10
197
20
-134.625
11
197
21
-122.625
0
LINE
8
0
6
CONTINUOUS
10
194
20
-119.625
11
182
21
-119.625
0
LINE
8
0
6
CONTINUOUS
10
179
20
-122.625
11
179
21
-134.625
0
LINE
8
0
6
CONTINUOUS
10
182
20
-118.625
11
194
21
-118.625
0
LINE
8
0
6
CONTINUOUS
10
197
20
-115.625
11
197
21
-103.625
0
LINE
8
0
6
CONTINUOUS
10
194
20
-100.625
11
182
21
-100.625
0
LINE
8
0
6
CONTINUOUS
10
179
20
-103.625
11
179
21
-115.625
0
LINE
8
0
6
CONTINUOUS
10
201
20
-154.25
11
213
21
-154.25
0
LINE
8
0
6
CONTINUOUS
10
216
20
-151.25
11
216
21
-139.25
0
LINE
8
0
6
CONTINUOUS
10
213
20
-136.25
11
201
21
-136.25
0
LINE
8
0
6
CONTINUOUS
10
198
20
-139.25
11
198
21
-151.25
0
LINE
8
0
6
CONTINUOUS
10
201
20
-135.25
11
213
21
-135.25
0
LINE
8
0
6
CONTINUOUS
10
216
20
-132.25
11
216
21
-120.25
0
LINE
8
0
6
CONTINUOUS
10
213
20
-117.25
11
201
21
-117.25
0
LINE
8
0
6
CONTINUOUS
10
198
20
-120.25
11
198
21
-132.25
0
LINE
8
0
6
CONTINUOUS
10
201
20
-116.25
11
213
21
-116.25
0
LINE
8
0
6
CONTINUOUS
10
216
20
-113.25
11
216
21
-101.25
0
LINE
8
0
6
CONTINUOUS
10
213
20
-98.25
11
201
21
-98.25
0
LINE
8
0
6
CONTINUOUS
10
198
20
-101.25
11
198
21
-113.25
0
LINE
8
0
6
CONTINUOUS
10
220
20
-156.625
11
232
21
-156.625
0
LINE
8
0
6
CONTINUOUS
10
235
20
-153.625
11
235
21
-141.625
0
LINE
8
0
6
CONTINUOUS
10
232
20
-138.625
11
220
21
-138.625
0
LINE
8
0
6
CONTINUOUS
10
217
20
-141.625
11
217
21
-153.625
0
LINE
8
0
6
CONTINUOUS
10
220
20
-137.625
11
232
21
-137.625
0
LINE
8
0
6
CONTINUOUS
10
235
20
-134.625
11
235
21
-122.625
0
LINE
8
0
6
CONTINUOUS
10
232
20
-119.625
11
220
21
-119.625
0
LINE
8
0
6
CONTINUOUS
10
217
20
-122.625
11
217
21
-134.625
0
LINE
8
0
6
CONTINUOUS
10
220
20
-118.625
11
232
21
-118.625
0
LINE
8
0
6
CONTINUOUS
10
235
20
-115.625
11
235
21
-103.625
0
LINE
8
0
6
CONTINUOUS
10
232
20
-100.625
11
220
21
-100.625
0
LINE
8
0
6
CONTINUOUS
10
217
20
-103.625
11
217
21
-115.625
0
LINE
8
0
6
CONTINUOUS
10
239
20
-159
11
251
21
-159
0
LINE
8
0
6
CONTINUOUS
10
254
20
-156
11
254
21
-144
0
LINE
8
0
6
CONTINUOUS
10
251
20
-141
11
239
21
-141
0
LINE
8
0
6
CONTINUOUS
10
236
20
-144
11
236
21
-156
0
LINE
8
0
6
CONTINUOUS
10
239
20
-140
11
251
21
-140
0
LINE
8
0
6
CONTINUOUS
10
254
20
-137
11
254
21
-125
0
LINE
8
0
6
CONTINUOUS
10
251
20
-122
11
239
21
-122
0
LINE
8
0
6
CONTINUOUS
10
236
20
-125
11
236
21
-137
0
LINE
8
0
6
CONTINUOUS
10
239
20
-121
11
251
21
-121
0
LINE
8
0
6
CONTINUOUS
10
254
20
-118
11
254
21
-106
0
LINE
8
0
6
CONTINUOUS
10
251
20
-103
11
239
21
-103
0
LINE
8
0
6
CONTINUOUS
10
236
20
-106
11
236
21
-118
0
LINE
8
0
6
CONTINUOUS
10
191.5
20
-177.125
11
203.5
21
-177.125
0
LINE
8
0
6
CONTINUOUS
10
206.5
20
-174.125
11
206.5
21
-162.125
0
LINE
8
0
6
CONTINUOUS
10
203.5
20
-159.125
11
191.5
21
-159.125
0
LINE
8
0
6
CONTINUOUS
10
188.5
20
-162.125
11
188.5
21
-174.125
0
LINE
8
0
6
CONTINUOUS
10
210.5
20
-177.125
11
222.5
21
-177.125
0
LINE
8
0
6
CONTINUOUS
10
225.5
20
-174.125
11
225.5
21
-162.125
0
LINE
8
0
6
CONTINUOUS
10
222.5
20
-159.125
11
210.5
21
-159.125
0
LINE
8
0
6
CONTINUOUS
10
207.5
20
-162.125
11
207.5
21
-174.125
0
LINE
8
0
6
CONTINUOUS
10
229.5274725
20
-177.8636172
11
241.2652437
21
-180.3585574
0
LINE
8
0
6
CONTINUOUS
10
244.8234216
20
-178.0478497
11
247.3183618
21
-166.3100785
0
LINE
8
0
6
CONTINUOUS
10
245.0076541
20
-162.7519006
11
233.2698829
21
-160.2569604
0
LINE
8
0
6
CONTINUOUS
10
229.711705
20
-162.5676681
11
227.2167648
21
-174.3054393
0
LINE
8
0
6
CONTINUOUS
10
247.985582
20
-182.5421277
11
258.9481275
21
-187.4229674
0
LINE
8
0
6
CONTINUOUS
10
262.9089737
20
-185.9025408
11
267.7898134
21
-174.9399953
0
LINE
8
0
6
CONTINUOUS
10
266.2693868
20
-170.9791491
11
255.3068413
21
-166.0983094
0
LINE
8
0
6
CONTINUOUS
10
251.3459951
20
-167.618736
11
246.4651554
21
-178.5812815
0
LINE
8
0
6
CONTINUOUS
10
255.7135782
20
-165.184764
11
266.6761237
21
-170.0656037
0
LINE
8
0
6
CONTINUOUS
10
270.6369699
20
-168.5451771
11
275.5178096
21
-157.5826316
0
LINE
8
0
6
CONTINUOUS
10
273.997383
20
-153.6217854
11
263.0348375
21
-148.7409457
0
LINE
8
0
6
CONTINUOUS
10
259.0739913
20
-150.2613723
11
254.1931516
21
-161.2239178
0
LINE
8
0
6
CONTINUOUS
10
265.0676202
20
-190.9560582
11
274.7758241
21
-198.0094812
0
LINE
8
0
6
CONTINUOUS
10
278.9662309
20
-197.3457861
11
286.0196539
21
-187.6375822
0
LINE
8
0
6
CONTINUOUS
10
285.3559588
20
-183.4471754
11
275.6477549
21
-176.3937524
0
LINE
8
0
6
CONTINUOUS
10
271.4573481
20
-177.0574475
11
264.4039251
21
-186.7656514
0
LINE
8
0
6
CONTINUOUS
10
276.23554
20
-175.5847353
11
285.9437439
21
-182.6381583
0
LINE
8
0
6
CONTINUOUS
10
290.1341507
20
-181.9744632
11
297.1875737
21
-172.2662593
0
LINE
8
0
6
CONTINUOUS
10
296.5238786
20
-168.0758525
11
286.8156747
21
-161.0224295
0
LINE
8
0
6
CONTINUOUS
10
282.6252679
20
-161.6861246
11
275.5718449
21
-171.3943285
0
ARC
8
0
6
CONTINUOUS
10
156
20
-156
40
3
50
270
51
0
0
ARC
8
0
6
CONTINUOUS
10
156
20
-144
40
3
50
0
51
90
0
ARC
8
0
6
CONTINUOUS
10
144
20
-144
40
3
50
90
51
180
0
ARC
8
0
6
CONTINUOUS
10
144
20
-156
40
3
50
180
51
270
0
ARC
8
0
6
CONTINUOUS
10
156
20
-137
40
3
50
270
51
0
0
ARC
8
0
6
CONTINUOUS
10
156
20
-125
40
3
50
0
51
90
0
ARC
8
0
6
CONTINUOUS
10
144
20
-125
40
3
50
90
51
180
0
ARC
8
0
6
CONTINUOUS
10
144
20
-137
40
3
50
180
51
270
0
ARC
8
0
6
CONTINUOUS
10
156
20
-118
40
3
50
270
51
0
0
ARC
8
0
6
CONTINUOUS
10
156
20
-106
40
3
50
0
51
90
0
ARC
8
0
6
CONTINUOUS
10
144
20
-106
40
3
50
90
51
180
0
ARC
8
0
6
CONTINUOUS
10
144
20
-118
40
3
50
180
51
270
0
ARC
8
0
6
CONTINUOUS
10
175
20
-156
40
3
50
270
51
0
0
ARC
8
0
6
CONTINUOUS
10
175
20
-144
40
3
50
0
51
90
0
ARC
8
0
6
CONTINUOUS
10
163
20
-144
40
3
50
90
51
180
0
ARC
8
0
6
CONTINUOUS
10
163
20
-156
40
3
50
180
51
270
0
ARC
8
0
6
CONTINUOUS
10
175
20
-137
40
3
50
270
51
0
0
ARC
8
0
6
CONTINUOUS
10
175
20
-125
40
3
50
0
51
90
0
ARC
8
0
6
CONTINUOUS
10
163
20
-125
40
3
50
90
51
180
0
ARC
8
0
6
CONTINUOUS
10
163
20
-137
40
3
50
180
51
270
0
ARC
8
0
6
CONTINUOUS
10
175
20
-118
40
3
50
270
51
0
0
ARC
8
0
6
CONTINUOUS
10
175
20
-106
40
3
50
0
51
90
0
ARC
8
0
6
CONTINUOUS
10
163
20
-106
40
3
50
90
51
180
0
ARC
8
0
6
CONTINUOUS
10
163
20
-118
40
3
50
180
51
270
0
ARC
8
0
6
CONTINUOUS
10
194
20
-153.625
40
3
50
270
51
0
0
ARC
8
0
6
CONTINUOUS
10
194
20
-141.625
40
3
50
0
51
90
0
ARC
8
0
6
CONTINUOUS
10
182
20
-141.625
40
3
50
90
51
180
0
ARC
8
0
6
CONTINUOUS
10
182
20
-153.625
40
3
50
180
51
270
0
ARC
8
0
6
CONTINUOUS
10
194
20
-134.625
40
3
50
270
51
0
0
ARC
8
0
6
CONTINUOUS
10
194
20
-122.625
40
3
50
0
51
90
0
ARC
8
0
6
CONTINUOUS
10
182
20
-122.625
40
3
50
90
51
180
0
ARC
8
0
6
CONTINUOUS
10
182
20
-134.625
40
3
50
180
51
270
0
ARC
8
0
6
CONTINUOUS
10
194
20
-115.625
40
3
50
270
51
0
0
ARC
8
0
6
CONTINUOUS
10
194
20
-103.625
40
3
50
0
51
90
0
ARC
8
0
6
CONTINUOUS
10
182
20
-103.625
40
3
50
90
51
180
0
ARC
8
0
6
CONTINUOUS
10
182
20
-115.625
40
3
50
180
51
270
0
ARC
8
0
6
CONTINUOUS
10
213
20
-151.25
40
3
50
270
51
0
0
ARC
8
0
6
CONTINUOUS
10
213
20
-139.25
40
3
50
0
51
90
0
ARC
8
0
6
CONTINUOUS
10
201
20
-139.25
40
3
50
90
51
180
0
ARC
8
0
6
CONTINUOUS
10
201
20
-151.25
40
3
50
180
51
270
0
ARC
8
0
6
CONTINUOUS
10
213
20
-132.25
40
3
50
270
51
0
0
ARC
8
0
6
CONTINUOUS
10
213
20
-120.25
40
3
50
0
51
90
0
ARC
8
0
6
CONTINUOUS
10
201
20
-120.25
40
3
50
90
51
180
0
ARC
8
0
6
CONTINUOUS
10
201
20
-132.25
40
3
50
180
51
270
0
ARC
8
0
6
CONTINUOUS
10
213
20
-113.25
40
3
50
270
51
0
0
ARC
8
0
6
CONTINUOUS
10
213
20
-101.25
40
3
50
0
51
90
0
ARC
8
0
6
CONTINUOUS
10
201
20
-101.25
40
3
50
90
51
180
0
ARC
8
0
6
CONTINUOUS
10
201
20
-113.25
40
3
50
180
51
270
0
ARC
8
0
6
CONTINUOUS
10
232
20
-153.625
40
3
50
270
51
0
0
ARC
8
0
6
CONTINUOUS
10
232
20
-141.625
40
3
50
0
51
90
0
ARC
8
0
6
CONTINUOUS
10
220
20
-141.625
40
3
50
90
51
180
0
ARC
8
0
6
CONTINUOUS
10
220
20
-153.625
40
3
50
180
51
270
0
ARC
8
0
6
CONTINUOUS
10
232
20
-134.625
40
3
50
270
51
0
0
ARC
8
0
6
CONTINUOUS
10
232
20
-122.625
40
3
50
0
51
90
0
ARC
8
0
6
CONTINUOUS
10
220
20
-122.625
40
3
50
90
51
180
0
ARC
8
0
6
CONTINUOUS
10
220
20
-134.625
40
3
50
180
51
270
0
ARC
8
0
6
CONTINUOUS
10
232
20
-115.625
40
3
50
270
51
0
0
ARC
8
0
6
CONTINUOUS
10
232
20
-103.625
40
3
50
0
51
90
0
ARC
8
0
6
CONTINUOUS
10
220
20
-103.625
40
3
50
90
51
180
0
ARC
8
0
6
CONTINUOUS
10
220
20
-115.625
40
3
50
180
51
270
0
ARC
8
0
6
CONTINUOUS
10
251
20
-156
40
3
50
270
51
0
0
ARC
8
0
6
CONTINUOUS
10
251
20
-144
40
3
50
0
51
90
0
ARC
8
0
6
CONTINUOUS
10
239
20
-144
40
3
50
90
51
180
0
ARC
8
0
6
CONTINUOUS
10
239
20
-156
40
3
50
180
51
270
0
ARC
8
0
6
CONTINUOUS
10
251
20
-137
40
3
50
270
51
0
0
ARC
8
0
6
CONTINUOUS
10
251
20
-125
40
3
50
0
51
90
0
ARC
8
0
6
CONTINUOUS
10
239
20
-125
40
3
50
90
51
180
0
ARC
8
0
6
CONTINUOUS
10
239
20
-137
40
3
50
180
51
270
0
ARC
8
0
6
CONTINUOUS
10
251
20
-118
40
3
50
270
51
0
0
ARC
8
0
6
CONTINUOUS
10
251
20
-106
40
3
50
0
51
90
0
ARC
8
0
6
CONTINUOUS
10
239
20
-106
40
3
50
90
51
180
0
ARC
8
0
6
CONTINUOUS
10
239
20
-118
40
3
50
180
51
270
0
ARC
8
0
6
CONTINUOUS
10
203.5
20
-174.125
40
3
50
270
51
0
0
ARC
8
0
6
CONTINUOUS
10
203.5
20
-162.125
40
3
50
0
51
90
0
ARC
8
0
6
CONTINUOUS
10
191.5
20
-162.125
40
3
50
90
51
180
0
ARC
8
0
6
CONTINUOUS
10
191.5
20
-174.125
40
3
50
180
51
270
0
ARC
8
0
6
CONTINUOUS
10
222.5
20
-174.125
40
3
50
270
51
0
0
ARC
8
0
6
CONTINUOUS
10
222.5
20
-162.125
40
3
50
0
51
90
0
ARC
8
0
6
CONTINUOUS
10
210.5
20
-162.125
40
3
50
90
51
180
0
ARC
8
0
6
CONTINUOUS
10
210.5
20
-174.125
40
3
50
180
51
270
0
ARC
8
0
6
CONTINUOUS
10
241.8889788
20
-177.4241146
40
3
50
257.9999995
51
347.9999995
0
ARC
8
0
6
CONTINUOUS
10
244.383919
20
-165.6863434
40
3
50
347.9999995
51
77.9999995
0
ARC
8
0
6
CONTINUOUS
10
232.6461478
20
-163.1914032
40
3
50
77.9999995
51
167.9999995
0
ARC
8
0
6
CONTINUOUS
10
230.1512076
20
-174.9291744
40
3
50
167.9999995
51
257.9999995
0
ARC
8
0
6
CONTINUOUS
10
287.7070998
20
-180.2111073
40
3
50
233.999998
51
323.999998
0
ARC
8
0
6
CONTINUOUS
10
294.7605227
20
-170.5029034
40
3
50
323.999998
51
53.999998
0
ARC
8
0
6
CONTINUOUS
10
285.0523188
20
-163.4494805
40
3
50
53.999998
51
143.999998
0
ARC
8
0
6
CONTINUOUS
10
277.9988959
20
-173.1576844
40
3
50
143.999998
51
233.999998
0
ARC
8
0
6
CONTINUOUS
10
276.53918
20
-195.5824302
40
3
50
233.999998
51
323.999998
0
ARC
8
0
6
CONTINUOUS
10
283.5926029
20
-185.8742263
40
3
50
323.999998
51
53.999998
0
ARC
8
0
6
CONTINUOUS
10
273.884399
20
-178.8208034
40
3
50
53.999998
51
143.999998
0
ARC
8
0
6
CONTINUOUS
10
266.8309761
20
-188.5290073
40
3
50
143.999998
51
233.999998
0
ARC
8
0
6
CONTINUOUS
10
267.8963335
20
-167.3249673
40
3
50
246.0000032
51
336.0000032
0
ARC
8
0
6
CONTINUOUS
10
272.7771732
20
-156.3624218
40
3
50
336.0000032
51
66.0000032
0
ARC
8
0
6
CONTINUOUS
10
261.8146277
20
-151.4815821
40
3
50
66.0000032
51
156.0000032
0
ARC
8
0
6
CONTINUOUS
10
256.933788
20
-162.4441276
40
3
50
156.0000032
51
246.0000032
0
ARC
8
0
6
CONTINUOUS
10
260.1683373
20
-184.682331
40
3
50
246.0000032
51
336.0000032
0
ARC
8
0
6
CONTINUOUS
10
265.049177
20
-173.7197855
40
3
50
336.0000032
51
66.0000032
0
ARC
8
0
6
CONTINUOUS
10
254.0866315
20
-168.8389458
40
3
50
66.0000032
51
156.0000032
0
ARC
8
0
6
CONTINUOUS
10
249.2057918
20
-179.8014913
40
3
50
156.0000032
51
246.0000032
0
LINE
8
0
6
CONTINUOUS
10
256.61
20
-132.5
11
274.39
21
-132.5
0
LINE
8
0
6
CONTINUOUS
10
274.39
20
-132.5
11
274.39
21
-99.5
0
LINE
8
0
6
CONTINUOUS
10
274.39
20
-99.5
11
256.61
21
-99.5
0
LINE
8
0
6
CONTINUOUS
10
256.61
20
-99.5
11
256.61
21
-132.5
0
LINE
8
0
6
CONTINUOUS
10
259.5
20
-138.5
11
271.5
21
-138.5
0
LINE
8
0
6
CONTINUOUS
10
271.5
20
-138.5
11
271.5
21
-100.5
0
LINE
8
0
6
CONTINUOUS
10
271.5
20
-100.5
11
259.5
21
-100.5
0
LINE
8
0
6
CONTINUOUS
10
259.5
20
-100.5
11
259.5
21
-138.5
0
CIRCLE
8
0
6
CONTINUOUS
10
235.5
20
-120.3125
40
2.15
0
CIRCLE
8
0
6
CONTINUOUS
10
207
20
-158.625
40
2.15
0
CIRCLE
8
0
6
CONTINUOUS
10
271.393616
20
-172.9329305
40
2.15
0
CIRCLE
8
0
6
CONTINUOUS
10
159.5
20
-121.5
40
2.15
0
CIRCLE
8
0
6
CONTINUOUS
10
159.5
20
-140.5
40
2.15
0
ENDSEC
0
EOF