0
SECTION
2
HEADER
9
$INSUNITS
70
4
0
ENDSEC
0
SECTION
2
TABLES
0
TABLE
2
LTYPE
0
LTYPE
72
65
70
0
2
CONTINUOUS
3
______
73
0
40
0
0
LTYPE
72
65
70
0
2
DASHED
3
_ _ _ 
73
2
40
7.5
49
5
49
-2.5
0
LTYPE
72
65
70
0
2
DOTTED
3
. . . 
73
2
40
1.5
49
0.5
49
-1
0
ENDTAB
0
TABLE
2
LAYER
0
ENDTAB
0
ENDSEC
0
SECTION
2
ENTITIES
0
LINE
8
0
6
CONTINUOUS
10
139.5
20
-160.3333333
11
139.5
21
-101.5
0
LINE
8
0
6
CONTINUOUS
10
139.5
20
-101.5
11
177.5
21
-101.5
0
LINE
8
0
6
CONTINUOUS
10
177.5
20
-101.5
11
177.5
21
-98.3333333
0
LINE
8
0
6
CONTINUOUS
10
177.5
20
-98.3333333
11
196.5
21
-98.3333333
0
LINE
8
0
6
CONTINUOUS
10
196.5
20
-98.3333333
11
196.5
21
-95.1666667
0
LINE
8
0
6
CONTINUOUS
10
196.5
20
-95.1666667
11
277
21
-95.1666667
0
LINE
8
0
6
CONTINUOUS
10
277
20
-95.1666667
11
277
21
-157.7412898
0
LINE
8
0
6
CONTINUOUS
10
277
20
-157.7412898
11
262.448977
21
-190.3319338
0
LINE
8
0
6
CONTINUOUS
10
262.448977
20
-190.3319338
11
244.3768928
21
-182.2618031
0
LINE
8
0
6
CONTINUOUS
10
244.3768928
20
-182.2618031
11
225
21
-178.3333333
0
LINE
8
0
6
CONTINUOUS
10
225
20
-178.3333333
11
187
21
-178.3333333
0
LINE
8
0
6
CONTINUOUS
10
187
20
-178.3333333
11
187
21
-160.3333333
0
LINE
8
0
6
CONTINUOUS
10
187
20
-160.3333333
11
139.5
21
-160.3333333
0
LINE
8
0
6
CONTINUOUS
10
144
20
-159
11
156
21
-159
0
LINE
8
0
6
CONTINUOUS
10
159
20
-156
11
159
21
-144
0
LINE
8
0
6
CONTINUOUS
10
156
20
-141
11
144
21
-141
0
LINE
8
0
6
CONTINUOUS
10
141
20
-144
11
141
21
-156
0
LINE
8
0
6
CONTINUOUS
10
144
20
-140
11
156
21
-140
0
LINE
8
0
6
CONTINUOUS
10
159
20
-137
11
159
21
-125
0
LINE
8
0
6
CONTINUOUS
10
156
20
-122
11
144
21
-122
0
LINE
8
0
6
CONTINUOUS
10
141
20
-125
11
141
21
-137
0
LINE
8
0
6
CONTINUOUS
10
144
20
-121
11
156
21
-121
0
LINE
8
0
6
CONTINUOUS
10
159
20
-118
11
159
21
-106
0
LINE
8
0
6
CONTINUOUS
10
156
20
-103
11
144
21
-103
0
LINE
8
0
6
CONTINUOUS
10
141
20
-106
11
141
21
-118
0
LINE
8
0
6
CONTINUOUS
10
163
20
-159
11
175
21
-159
0
LINE
8
0
6
CONTINUOUS
10
178
20
-156
11
178
21
-144
0
LINE
8
0
6
CONTINUOUS
10
175
20
-141
11
163
21
-141
0
LINE
8
0
6
CONTINUOUS
10
160
20
-144
11
160
21
-156
0
LINE
8
0
6
CONTINUOUS
10
163
20
-140
11
175
21
-140
0
LINE
8
0
6
CONTINUOUS
10
178
20
-137
11
178
21
-125
0
LINE
8
0
6
CONTINUOUS
10
175
20
-122
11
163
21
-122
0
LINE
8
0
6
CONTINUOUS
10
160
20
-125
11
160
21
-137
0
LINE
8
0
6
CONTINUOUS
10
163
20
-121
11
175
21
-121
0
LINE
8
0
6
CONTINUOUS
10
178
20
-118
11
178
21
-106
0
LINE
8
0
6
CONTINUOUS
10
175
20
-103
11
163
21
-103
0
LINE
8
0
6
CONTINUOUS
10
160
20
-106
11
160
21
-118
0
LINE
8
0
6
CONTINUOUS
10
182
20
-155.8333333
11
194
21
-155.8333333
0
LINE
8
0
6
CONTINUOUS
10
197
20
-152.8333333
11
197
21
-140.8333333
0
LINE
8
0
6
CONTINUOUS
10
194
20
-137.8333333
11
182
21
-137.8333333
0
LINE
8
0
6
CONTINUOUS
10
179
20
-140.8333333
11
179
21
-152.8333333
0
LINE
8
0
6
CONTINUOUS
10
182
20
-136.8333333
11
194
21
-136.8333333
0
LINE
8
0
6
CONTINUOUS
10
197
20
-133.8333333
11
197
21
-121.8333333
0
LINE
8
0
6
CONTINUOUS
10
194
20
-118.8333333
11
182
21
-118.8333333
0
LINE
8
0
6
CONTINUOUS
10
179
20
-121.8333333
11
179
21
-133.8333333
0
LINE
8
0
6
CONTINUOUS
10
182
20
-117.8333333
11
194
21
-117.8333333
0
LINE
8
0
6
CONTINUOUS
10
197
20
-114.8333333
11
197
21
-102.8333333
0
LINE
8
0
6
CONTINUOUS
10
194
20
-99.8333333
11
182
21
-99.8333333
0
LINE
8
0
6
CONTINUOUS
10
179
20
-102.8333333
11
179
21
-114.8333333
0
LINE
8
0
6
CONTINUOUS
10
201
20
-152.6666667
11
213
21
-152.6666667
0
LINE
8
0
6
CONTINUOUS
10
216
20
-149.6666667
11
216
21
-137.6666667
0
LINE
8
0
6
CONTINUOUS
10
213
20
-134.6666667
11
201
21
-134.6666667
0
LINE
8
0
6
CONTINUOUS
10
198
20
-137.6666667
11
198
21
-149.6666667
0
LINE
8
0
6
CONTINUOUS
10
201
20
-133.6666667
11
213
21
-133.6666667
0
LINE
8
0
6
CONTINUOUS
10
216
20
-130.6666667
11
216
21
-118.6666667
0
LINE
8
0
6
CONTINUOUS
10
213
20
-115.6666667
11
201
21
-115.6666667
0
LINE
8
0
6
CONTINUOUS
10
198
20
-118.6666667
11
198
21
-130.6666667
0
LINE
8
0
6
CONTINUOUS
10
201
20
-114.6666667
11
213
21
-114.6666667
0
LINE
8
0
6
CONTINUOUS
10
216
20
-111.6666667
11
216
21
-99.6666667
0
LINE
8
0
6
CONTINUOUS
10
213
20
-96.6666667
11
201
21
-96.6666667
0
LINE
8
0
6
CONTINUOUS
10
198
20
-99.6666667
11
198
21
-111.6666667
0
LINE
8
0
6
CONTINUOUS
10
220
20
-155.8333333
11
232
21
-155.8333333
0
LINE
8
0
6
CONTINUOUS
10
235
20
-152.8333333
11
235
21
-140.8333333
0
LINE
8
0
6
CONTINUOUS
10
232
20
-137.8333333
11
220
21
-137.8333333
0
LINE
8
0
6
CONTINUOUS
10
217
20
-140.8333333
11
217
21
-152.8333333
0
LINE
8
0
6
CONTINUOUS
10
220
20
-136.8333333
11
232
21
-136.8333333
0
LINE
8
0
6
CONTINUOUS
10
235
20
-133.8333333
11
235
21
-121.8333333
0
LINE
8
0
6
CONTINUOUS
10
232
20
-118.8333333
11
220
21
-118.8333333
0
LINE
8
0
6
CONTINUOUS
10
217
20
-121.8333333
11
217
21
-133.8333333
0
LINE
8
0
6
CONTINUOUS
10
220
20
-117.8333333
11
232
21
-117.8333333
0
LINE
8
0
6
CONTINUOUS
10
235
20
-114.8333333
11
235
21
-102.8333333
0
LINE
8
0
6
CONTINUOUS
10
232
20
-99.8333333
11
220
21
-99.8333333
0
LINE
8
0
6
CONTINUOUS
10
217
20
-102.8333333
11
217
21
-114.8333333
0
LINE
8
0
6
CONTINUOUS
10
239
20
-159
11
251
21
-159
0
LINE
8
0
6
CONTINUOUS
10
254
20
-156
11
254
21
-144
0
LINE
8
0
6
CONTINUOUS
10
251
20
-141
11
239
21
-141
0
LINE
8
0
6
CONTINUOUS
10
236
20
-144
11
236
21
-156
0
LINE
8
0
6
CONTINUOUS
10
239
20
-140
11
251
21
-140
0
LINE
8
0
6
CONTINUOUS
10
254
20
-137
11
254
21
-125
0
LINE
8
0
6
CONTINUOUS
10
251
20
-122
11
239
21
-122
0
LINE
8
0
6
CONTINUOUS
10
236
20
-125
11
236
21
-137
0
LINE
8
0
6
CONTINUOUS
10
239
20
-121
11
251
21
-121
0
LINE
8
0
6
CONTINUOUS
10
254
20
-118
11
254
21
-106
0
LINE
8
0
6
CONTINUOUS
10
251
20
-103
11
239
21
-103
0
LINE
8
0
6
CONTINUOUS
10
236
20
-106
11
236
21
-118
0
LINE
8
0
6
CONTINUOUS
10
191.5
20
-176.8333333
11
203.5
21
-176.8333333
0
LINE
8
0
6
CONTINUOUS
10
206.5
20
-173.8333333
11
206.5
21
-161.8333333
0
LINE
8
0
6
CONTINUOUS
10
203.5
20
-158.8333333
11
191.5
21
-158.8333333
0
LINE
8
0
6
CONTINUOUS
10
188.5
20
-161.8333333
11
188.5
21
-173.8333333
0
LINE
8
0
6
CONTINUOUS
10
210.5
20
-176.8333333
11
222.5
21
-176.8333333
0
LINE
8
0
6
CONTINUOUS
10
225.5
20
-173.8333333
11
225.5
21
-161.8333333
0
LINE
8
0
6
CONTINUOUS
10
222.5
20
-158.8333333
11
210.5
21
-158.8333333
0
LINE
8
0
6
CONTINUOUS
10
207.5
20
-161.8333333
11
207.5
21
-173.8333333
0
LINE
8
0
6
CONTINUOUS
10
229.5274725
20
-177.5719505
11
241.2652437
21
-180.0668907
0
LINE
8
0
6
CONTINUOUS
10
244.8234216
20
-177.756183
11
247.3183618
21
-166.0184118
0
LINE
8
0
6
CONTINUOUS
10
245.0076541
20
-162.4602339
11
233.2698829
21
-159.9652937
0
LINE
8
0
6
CONTINUOUS
10
229.711705
20
-162.2760014
11
227.2167648
21
-174.0137726
0
LINE
8
0
6
CONTINUOUS
10
247.985582
20
-182.250461
11
258.9481275
21
-187.1313007
0
LINE
8
0
6
CONTINUOUS
10
262.9089737
20
-185.6108741
11
267.7898134
21
-174.6483286
0
LINE
8
0
6
CONTINUOUS
10
266.2693868
20
-170.6874824
11
255.3068413
21
-165.8066427
0
LINE
8
0
6
CONTINUOUS
10
251.3459951
20
-167.3270693
11
246.4651554
21
-178.2896148
0
LINE
8
0
6
CONTINUOUS
10
255.7135782
20
-164.8930973
11
266.6761237
21
-169.773937
0
LINE
8
0
6
CONTINUOUS
10
270.6369699
20
-168.2535104
11
275.5178096
21
-157.2909649
0
LINE
8
0
6
CONTINUOUS
10
273.997383
20
-153.3301187
11
263.0348375
21
-148.449279
0
LINE
8
0
6
CONTINUOUS
10
259.0739913
20
-149.9697056
11
254.1931516
21
-160.9322511
0
ARC
8
0
6
CONTINUOUS
10
156
20
-156
40
3
50
270
51
0
0
ARC
8
0
6
CONTINUOUS
10
156
20
-144
40
3
50
0
51
90
0
ARC
8
0
6
CONTINUOUS
10
144
20
-144
40
3
50
90
51
180
0
ARC
8
0
6
CONTINUOUS
10
144
20
-156
40
3
50
180
51
270
0
ARC
8
0
6
CONTINUOUS
10
156
20
-137
40
3
50
270
51
0
0
ARC
8
0
6
CONTINUOUS
10
156
20
-125
40
3
50
0
51
90
0
ARC
8
0
6
CONTINUOUS
10
144
20
-125
40
3
50
90
51
180
0
ARC
8
0
6
CONTINUOUS
10
144
20
-137
40
3
50
180
51
270
0
ARC
8
0
6
CONTINUOUS
10
156
20
-118
40
3
50
270
51
0
0
ARC
8
0
6
CONTINUOUS
10
156
20
-106
40
3
50
0
51
90
0
ARC
8
0
6
CONTINUOUS
10
144
20
-106
40
3
50
90
51
180
0
ARC
8
0
6
CONTINUOUS
10
144
20
-118
40
3
50
180
51
270
0
ARC
8
0
6
CONTINUOUS
10
175
20
-156
40
3
50
270
51
0
0
ARC
8
0
6
CONTINUOUS
10
175
20
-144
40
3
50
0
51
90
0
ARC
8
0
6
CONTINUOUS
10
163
20
-144
40
3
50
90
51
180
0
ARC
8
0
6
CONTINUOUS
10
163
20
-156
40
3
50
180
51
270
0
ARC
8
0
6
CONTINUOUS
10
175
20
-137
40
3
50
270
51
0
0
ARC
8
0
6
CONTINUOUS
10
175
20
-125
40
3
50
0
51
90
0
ARC
8
0
6
CONTINUOUS
10
163
20
-125
40
3
50
90
51
180
0
ARC
8
0
6
CONTINUOUS
10
163
20
-137
40
3
50
180
51
270
0
ARC
8
0
6
CONTINUOUS
10
175
20
-118
40
3
50
270
51
0
0
ARC
8
0
6
CONTINUOUS
10
175
20
-106
40
3
50
0
51
90
0
ARC
8
0
6
CONTINUOUS
10
163
20
-106
40
3
50
90
51
180
0
ARC
8
0
6
CONTINUOUS
10
163
20
-118
40
3
50
180
51
270
0
ARC
8
0
6
CONTINUOUS
10
194
20
-152.8333333
40
3
50
270
51
0
0
ARC
8
0
6
CONTINUOUS
10
194
20
-140.8333333
40
3
50
0
51
90
0
ARC
8
0
6
CONTINUOUS
10
182
20
-140.8333333
40
3
50
90
51
180
0
ARC
8
0
6
CONTINUOUS
10
182
20
-152.8333333
40
3
50
180
51
270
0
ARC
8
0
6
CONTINUOUS
10
194
20
-133.8333333
40
3
50
270
51
0
0
ARC
8
0
6
CONTINUOUS
10
194
20
-121.8333333
40
3
50
0
51
90
0
ARC
8
0
6
CONTINUOUS
10
182
20
-121.8333333
40
3
50
90
51
180
0
ARC
8
0
6
CONTINUOUS
10
182
20
-133.8333333
40
3
50
180
51
270
0
ARC
8
0
6
CONTINUOUS
10
194
20
-114.8333333
40
3
50
270
51
0
0
ARC
8
0
6
CONTINUOUS
10
194
20
-102.8333333
40
3
50
0
51
90
0
ARC
8
0
6
CONTINUOUS
10
182
20
-102.8333333
40
3
50
90
51
180
0
ARC
8
0
6
CONTINUOUS
10
182
20
-114.8333333
40
3
50
180
51
270
0
ARC
8
0
6
CONTINUOUS
10
213
20
-149.6666667
40
3
50
270
51
0
0
ARC
8
0
6
CONTINUOUS
10
213
20
-137.6666667
40
3
50
0
51
90
0
ARC
8
0
6
CONTINUOUS
10
201
20
-137.6666667
40
3
50
90
51
180
0
ARC
8
0
6
CONTINUOUS
10
201
20
-149.6666667
40
3
50
180
51
270
0
ARC
8
0
6
CONTINUOUS
10
213
20
-130.6666667
40
3
50
270
51
0
0
ARC
8
0
6
CONTINUOUS
10
213
20
-118.6666667
40
3
50
0
51
90
0
ARC
8
0
6
CONTINUOUS
10
201
20
-118.6666667
40
3
50
90
51
180
0
ARC
8
0
6
CONTINUOUS
10
201
20
-130.6666667
40
3
50
180
51
270
0
ARC
8
0
6
CONTINUOUS
10
213
20
-111.6666667
40
3
50
270
51
0
0
ARC
8
0
6
CONTINUOUS
10
213
20
-99.6666667
40
3
50
0
51
90
0
ARC
8
0
6
CONTINUOUS
10
201
20
-99.6666667
40
3
50
90
51
180
0
ARC
8
0
6
CONTINUOUS
10
201
20
-111.6666667
40
3
50
180
51
270
0
ARC
8
0
6
CONTINUOUS
10
232
20
-152.8333333
40
3
50
270
51
0
0
ARC
8
0
6
CONTINUOUS
10
232
20
-140.8333333
40
3
50
0
51
90
0
ARC
8
0
6
CONTINUOUS
10
220
20
-140.8333333
40
3
50
90
51
180
0
ARC
8
0
6
CONTINUOUS
10
220
20
-152.8333333
40
3
50
180
51
270
0
ARC
8
0
6
CONTINUOUS
10
232
20
-133.8333333
40
3
50
270
51
0
0
ARC
8
0
6
CONTINUOUS
10
232
20
-121.8333333
40
3
50
0
51
90
0
ARC
8
0
6
CONTINUOUS
10
220
20
-121.8333333
40
3
50
90
51
180
0
ARC
8
0
6
CONTINUOUS
10
220
20
-133.8333333
40
3
50
180
51
270
0
ARC
8
0
6
CONTINUOUS
10
232
20
-114.8333333
40
3
50
270
51
0
0
ARC
8
0
6
CONTINUOUS
10
232
20
-102.8333333
40
3
50
0
51
90
0
ARC
8
0
6
CONTINUOUS
10
220
20
-102.8333333
40
3
50
90
51
180
0
ARC
8
0
6
CONTINUOUS
10
220
20
-114.8333333
40
3
50
180
51
270
0
ARC
8
0
6
CONTINUOUS
10
251
20
-156
40
3
50
270
51
0
0
ARC
8
0
6
CONTINUOUS
10
251
20
-144
40
3
50
0
51
90
0
ARC
8
0
6
CONTINUOUS
10
239
20
-144
40
3
50
90
51
180
0
ARC
8
0
6
CONTINUOUS
10
239
20
-156
40
3
50
180
51
270
0
ARC
8
0
6
CONTINUOUS
10
251
20
-137
40
3
50
270
51
0
0
ARC
8
0
6
CONTINUOUS
10
251
20
-125
40
3
50
0
51
90
0
ARC
8
0
6
CONTINUOUS
10
239
20
-125
40
3
50
90
51
180
0
ARC
8
0
6
CONTINUOUS
10
239
20
-137
40
3
50
180
51
270
0
ARC
8
0
6
CONTINUOUS
10
251
20
-118
40
3
50
270
51
0
0
ARC
8
0
6
CONTINUOUS
10
251
20
-106
40
3
50
0
51
90
0
ARC
8
0
6
CONTINUOUS
10
239
20
-106
40
3
50
90
51
180
0
ARC
8
0
6
CONTINUOUS
10
239
20
-118
40
3
50
180
51
270
0
ARC
8
0
6
CONTINUOUS
10
203.5
20
-173.8333333
40
3
50
270
51
0
0
ARC
8
0
6
CONTINUOUS
10
203.5
20
-161.8333333
40
3
50
0
51
90
0
ARC
8
0
6
CONTINUOUS
10
191.5
20
-161.8333333
40
3
50
90
51
180
0
ARC
8
0
6
CONTINUOUS
10
191.5
20
-173.8333333
40
3
50
180
51
270
0
ARC
8
0
6
CONTINUOUS
10
222.5
20
-173.8333333
40
3
50
270
51
0
0
ARC
8
0
6
CONTINUOUS
10
222.5
20
-161.8333333
40
3
50
0
51
90
0
ARC
8
0
6
CONTINUOUS
10
210.5
20
-161.8333333
40
3
50
90
51
180
0
ARC
8
0
6
CONTINUOUS
10
210.5
20
-173.8333333
40
3
50
180
51
270
0
ARC
8
0
6
CONTINUOUS
10
241.8889788
20
-177.1324479
40
3
50
257.9999995
51
347.9999995
0
ARC
8
0
6
CONTINUOUS
10
244.383919
20
-165.3946767
40
3
50
347.9999995
51
77.9999995
0
ARC
8
0
6
CONTINUOUS
10
232.6461478
20
-162.8997365
40
3
50
77.9999995
51
167.9999995
0
ARC
8
0
6
CONTINUOUS
10
230.1512076
20
-174.6375077
40
3
50
167.9999995
51
257.9999995
0
ARC
8
0
6
CONTINUOUS
10
267.8963335
20
-167.0333006
40
3
50
246.0000032
51
336.0000032
0
ARC
8
0
6
CONTINUOUS
10
272.7771732
20
-156.0707551
40
3
50
336.0000032
51
66.0000032
0
ARC
8
0
6
CONTINUOUS
10
261.8146277
20
-151.1899154
40
3
50
66.0000032
51
156.0000032
0
ARC
8
0
6
CONTINUOUS
10
256.933788
20
-162.1524609
40
3
50
156.0000032
51
246.0000032
0
ARC
8
0
6
CONTINUOUS
10
260.1683373
20
-184.3906643
40
3
50
246.0000032
51
336.0000032
0
ARC
8
0
6
CONTINUOUS
10
265.049177
20
-173.4281188
40
3
50
336.0000032
51
66.0000032
0
ARC
8
0
6
CONTINUOUS
10
254.0866315
20
-168.5472791
40
3
50
66.0000032
51
156.0000032
0
ARC
8
0
6
CONTINUOUS
10
249.2057918
20
-179.5098246
40
3
50
156.0000032
51
246.0000032
0
LINE
8
0
6
CONTINUOUS
10
257
20
-129.5
11
275
21
-129.5
0
LINE
8
0
6
CONTINUOUS
10
275
20
-129.5
11
275
21
-96.5
0
LINE
8
0
6
CONTINUOUS
10
275
20
-96.5
11
257
21
-96.5
0
LINE
8
0
6
CONTINUOUS
10
257
20
-96.5
11
257
21
-129.5
0
CIRCLE
8
0
6
CONTINUOUS
10
159.5
20
-121.5
40
2.15
0
CIRCLE
8
0
6
CONTINUOUS
10
159.5
20
-140.5
40
2.15
0
CIRCLE
8
0
6
CONTINUOUS
10
245
20
-99
40
2.15
0
CIRCLE
8
0
6
CONTINUOUS
10
250.5967108
20
-162.7809102
40
2.15
0
LINE
8
0
6
CONTINUOUS
10
261
20
-137.5
11
275
21
-137.5
0
LINE
8
0
6
CONTINUOUS
10
275
20
-137.5
11
275
21
-131.5
0
LINE
8
0
6
CONTINUOUS
10
275
20
-131.5
11
261
21
-131.5
0
LINE
8
0
6
CONTINUOUS
10
261
20
-131.5
11
261
21
-137.5
0
LINE
8
0
6
CONTINUOUS
10
269
20
-145.5
11
275
21
-145.5
0
LINE
8
0
6
CONTINUOUS
10
275
20
-145.5
11
275
21
-139.5
0
LINE
8
0
6
CONTINUOUS
10
275
20
-139.5
11
269
21
-139.5
0
LINE
8
0
6
CONTINUOUS
10
269
20
-139.5
11
269
21
-145.5
0
ENDSEC
0
EOF