0
SECTION
2
HEADER
9
$INSUNITS
70
4
0
ENDSEC
0
SECTION
2
TABLES
0
TABLE
2
LTYPE
0
LTYPE
72
65
70
0
2
CONTINUOUS
3
______
73
0
40
0
0
LTYPE
72
65
70
0
2
DASHED
3
_ _ _ 
73
2
40
7.5
49
5
49
-2.5
0
LTYPE
72
65
70
0
2
DOTTED
3
. . . 
73
2
40
1.5
49
0.5
49
-1
0
ENDTAB
0
TABLE
2
LAYER
0
ENDTAB
0
ENDSEC
0
SECTION
2
ENTITIES
0
LINE
8
0
6
CONTINUOUS
10
-9
20
9
11
9
21
9
0
LINE
8
0
6
CONTINUOUS
10
9
20
9
11
9
21
-9
0
LINE
8
0
6
CONTINUOUS
10
9
20
-9
11
-9
21
-9
0
LINE
8
0
6
CONTINUOUS
10
-9
20
-9
11
-9
21
9
0
LINE
8
0
6
CONTINUOUS
10
-9
20
28
11
9
21
28
0
LINE
8
0
6
CONTINUOUS
10
9
20
28
11
9
21
10
0
LINE
8
0
6
CONTINUOUS
10
9
20
10
11
-9
21
10
0
LINE
8
0
6
CONTINUOUS
10
-9
20
10
11
-9
21
28
0
LINE
8
0
6
CONTINUOUS
10
-9
20
47
11
9
21
47
0
LINE
8
0
6
CONTINUOUS
10
9
20
47
11
9
21
29
0
LINE
8
0
6
CONTINUOUS
10
9
20
29
11
-9
21
29
0
LINE
8
0
6
CONTINUOUS
10
-9
20
29
11
-9
21
47
0
LINE
8
0
6
CONTINUOUS
10
10
20
9
11
28
21
9
0
LINE
8
0
6
CONTINUOUS
10
28
20
9
11
28
21
-9
0
LINE
8
0
6
CONTINUOUS
10
28
20
-9
11
10
21
-9
0
LINE
8
0
6
CONTINUOUS
10
10
20
-9
11
10
21
9
0
LINE
8
0
6
CONTINUOUS
10
10
20
28
11
28
21
28
0
LINE
8
0
6
CONTINUOUS
10
28
20
28
11
28
21
10
0
LINE
8
0
6
CONTINUOUS
10
28
20
10
11
10
21
10
0
LINE
8
0
6
CONTINUOUS
10
10
20
10
11
10
21
28
0
LINE
8
0
6
CONTINUOUS
10
10
20
47
11
28
21
47
0
LINE
8
0
6
CONTINUOUS
10
28
20
47
11
28
21
29
0
LINE
8
0
6
CONTINUOUS
10
28
20
29
11
10
21
29
0
LINE
8
0
6
CONTINUOUS
10
10
20
29
11
10
21
47
0
LINE
8
0
6
CONTINUOUS
10
29
20
13.75
11
47
21
13.75
0
LINE
8
0
6
CONTINUOUS
10
47
20
13.75
11
47
21
-4.25
0
LINE
8
0
6
CONTINUOUS
10
47
20
-4.25
11
29
21
-4.25
0
LINE
8
0
6
CONTINUOUS
10
29
20
-4.25
11
29
21
13.75
0
LINE
8
0
6
CONTINUOUS
10
29
20
32.75
11
47
21
32.75
0
LINE
8
0
6
CONTINUOUS
10
47
20
32.75
11
47
21
14.75
0
LINE
8
0
6
CONTINUOUS
10
47
20
14.75
11
29
21
14.75
0
LINE
8
0
6
CONTINUOUS
10
29
20
14.75
11
29
21
32.75
0
LINE
8
0
6
CONTINUOUS
10
29
20
51.75
11
47
21
51.75
0
LINE
8
0
6
CONTINUOUS
10
47
20
51.75
11
47
21
33.75
0
LINE
8
0
6
CONTINUOUS
10
47
20
33.75
11
29
21
33.75
0
LINE
8
0
6
CONTINUOUS
10
29
20
33.75
11
29
21
51.75
0
LINE
8
0
6
CONTINUOUS
10
48
20
18.5
11
66
21
18.5
0
LINE
8
0
6
CONTINUOUS
10
66
20
18.5
11
66
21
0.5
0
LINE
8
0
6
CONTINUOUS
10
66
20
0.5
11
48
21
0.5
0
LINE
8
0
6
CONTINUOUS
10
48
20
0.5
11
48
21
18.5
0
LINE
8
0
6
CONTINUOUS
10
48
20
37.5
11
66
21
37.5
0
LINE
8
0
6
CONTINUOUS
10
66
20
37.5
11
66
21
19.5
0
LINE
8
0
6
CONTINUOUS
10
66
20
19.5
11
48
21
19.5
0
LINE
8
0
6
CONTINUOUS
10
48
20
19.5
11
48
21
37.5
0
LINE
8
0
6
CONTINUOUS
10
48
20
56.5
11
66
21
56.5
0
LINE
8
0
6
CONTINUOUS
10
66
20
56.5
11
66
21
38.5
0
LINE
8
0
6
CONTINUOUS
10
66
20
38.5
11
48
21
38.5
0
LINE
8
0
6
CONTINUOUS
10
48
20
38.5
11
48
21
56.5
0
LINE
8
0
6
CONTINUOUS
10
67
20
13.75
11
85
21
13.75
0
LINE
8
0
6
CONTINUOUS
10
85
20
13.75
11
85
21
-4.25
0
LINE
8
0
6
CONTINUOUS
10
85
20
-4.25
11
67
21
-4.25
0
LINE
8
0
6
CONTINUOUS
10
67
20
-4.25
11
67
21
13.75
0
LINE
8
0
6
CONTINUOUS
10
67
20
32.75
11
85
21
32.75
0
LINE
8
0
6
CONTINUOUS
10
85
20
32.75
11
85
21
14.75
0
LINE
8
0
6
CONTINUOUS
10
85
20
14.75
11
67
21
14.75
0
LINE
8
0
6
CONTINUOUS
10
67
20
14.75
11
67
21
32.75
0
LINE
8
0
6
CONTINUOUS
10
67
20
51.75
11
85
21
51.75
0
LINE
8
0
6
CONTINUOUS
10
85
20
51.75
11
85
21
33.75
0
LINE
8
0
6
CONTINUOUS
10
85
20
33.75
11
67
21
33.75
0
LINE
8
0
6
CONTINUOUS
10
67
20
33.75
11
67
21
51.75
0
LINE
8
0
6
CONTINUOUS
10
86
20
9
11
104
21
9
0
LINE
8
0
6
CONTINUOUS
10
104
20
9
11
104
21
-9
0
LINE
8
0
6
CONTINUOUS
10
104
20
-9
11
86
21
-9
0
LINE
8
0
6
CONTINUOUS
10
86
20
-9
11
86
21
9
0
LINE
8
0
6
CONTINUOUS
10
86
20
28
11
104
21
28
0
LINE
8
0
6
CONTINUOUS
10
104
20
28
11
104
21
10
0
LINE
8
0
6
CONTINUOUS
10
104
20
10
11
86
21
10
0
LINE
8
0
6
CONTINUOUS
10
86
20
10
11
86
21
28
0
LINE
8
0
6
CONTINUOUS
10
86
20
47
11
104
21
47
0
LINE
8
0
6
CONTINUOUS
10
104
20
47
11
104
21
29
0
LINE
8
0
6
CONTINUOUS
10
104
20
29
11
86
21
29
0
LINE
8
0
6
CONTINUOUS
10
86
20
29
11
86
21
47
0
LINE
8
0
6
CONTINUOUS
10
39.95
20
-11.3
11
57.95
21
-11.3
0
LINE
8
0
6
CONTINUOUS
10
57.95
20
-11.3
11
57.95
21
-29.3
0
LINE
8
0
6
CONTINUOUS
10
57.95
20
-29.3
11
39.95
21
-29.3
0
LINE
8
0
6
CONTINUOUS
10
39.95
20
-29.3
11
39.95
21
-11.3
0
LINE
8
0
6
CONTINUOUS
10
58.95
20
-11.3
11
76.95
21
-11.3
0
LINE
8
0
6
CONTINUOUS
10
76.95
20
-11.3
11
76.95
21
-29.3
0
LINE
8
0
6
CONTINUOUS
10
76.95
20
-29.3
11
58.95
21
-29.3
0
LINE
8
0
6
CONTINUOUS
10
58.95
20
-29.3
11
58.95
21
-11.3
0
LINE
8
0
6
CONTINUOUS
10
81.7854401
20
-11.8082253
11
99.3920969
21
-15.5506357
0
LINE
8
0
6
CONTINUOUS
10
99.3920969
20
-15.5506357
11
95.6496865
21
-33.1572925
0
LINE
8
0
6
CONTINUOUS
10
95.6496865
20
-33.1572925
11
78.0430297
21
-29.4148821
0
LINE
8
0
6
CONTINUOUS
10
78.0430297
20
-29.4148821
11
81.7854401
21
-11.8082253
0
LINE
8
0
6
CONTINUOUS
10
104.0162051
20
-17.0530995
11
120.4600233
21
-24.3743591
0
LINE
8
0
6
CONTINUOUS
10
120.4600233
20
-24.3743591
11
113.1387637
21
-40.8181773
0
LINE
8
0
6
CONTINUOUS
10
113.1387637
20
-40.8181773
11
96.6949455
21
-33.4969177
0
LINE
8
0
6
CONTINUOUS
10
96.6949455
20
-33.4969177
11
104.0162051
21
-17.0530995
0
LINE
8
0
6
CONTINUOUS
10
111.7442013
20
0.3042642
11
128.1880195
21
-7.0169954
0
LINE
8
0
6
CONTINUOUS
10
128.1880195
20
-7.0169954
11
120.8667599
21
-23.4608136
0
LINE
8
0
6
CONTINUOUS
10
120.8667599
20
-23.4608136
11
104.4229417
21
-16.139554
0
LINE
8
0
6
CONTINUOUS
10
104.4229417
20
-16.139554
11
111.7442013
21
0.3042642
0
LINE
8
0
6
CONTINUOUS
10
124.6707038
20
-26.8053966
11
139.2330097
21
-37.3855311
0
LINE
8
0
6
CONTINUOUS
10
139.2330097
20
-37.3855311
11
128.6528752
21
-51.947837
0
LINE
8
0
6
CONTINUOUS
10
128.6528752
20
-51.947837
11
114.0905693
21
-41.3677025
0
LINE
8
0
6
CONTINUOUS
10
114.0905693
20
-41.3677025
11
124.6707038
21
-26.8053966
0
LINE
8
0
6
CONTINUOUS
10
135.8386236
20
-11.4340737
11
150.4009295
21
-22.0142082
0
LINE
8
0
6
CONTINUOUS
10
150.4009295
20
-22.0142082
11
139.820795
21
-36.5765141
0
LINE
8
0
6
CONTINUOUS
10
139.820795
20
-36.5765141
11
125.2584891
21
-25.9963796
0
LINE
8
0
6
CONTINUOUS
10
125.2584891
20
-25.9963796
11
135.8386236
21
-11.4340737
0
LINE
8
0
6
CONTINUOUS
10
107.05
20
47
11
125.05
21
47
0
LINE
8
0
6
CONTINUOUS
10
125.05
20
47
11
125.05
21
29
0
LINE
8
0
6
CONTINUOUS
10
125.05
20
29
11
107.05
21
29
0
LINE
8
0
6
CONTINUOUS
10
107.05
20
29
11
107.05
21
47
0
ENDSEC
0
EOF