<svg width="159.401mm" height="108.448mm" viewBox="0 0 159.401 108.448" xmlns="http://www.w3.org/2000/svg"><g id="svgGroup" stroke-linecap="round" fill-rule="evenodd" font-size="9pt" stroke="#000" stroke-width="0.25mm" fill="none" style="stroke:#000;stroke-width:0.25mm;fill:none"><path d="M 0 47.5 L 18 47.5 L 18 65.5 L 0 65.5 L 0 47.5 Z M 0 28.5 L 18 28.5 L 18 46.5 L 0 46.5 L 0 28.5 Z M 0 9.5 L 18 9.5 L 18 27.5 L 0 27.5 L 0 9.5 Z M 19 47.5 L 37 47.5 L 37 65.5 L 19 65.5 L 19 47.5 Z M 19 28.5 L 37 28.5 L 37 46.5 L 19 46.5 L 19 28.5 Z M 19 9.5 L 37 9.5 L 37 27.5 L 19 27.5 L 19 9.5 Z M 38 42.75 L 56 42.75 L 56 60.75 L 38 60.75 L 38 42.75 Z M 38 23.75 L 56 23.75 L 56 41.75 L 38 41.75 L 38 23.75 Z M 38 4.75 L 56 4.75 L 56 22.75 L 38 22.75 L 38 4.75 Z M 57 38 L 75 38 L 75 56 L 57 56 L 57 38 Z M 57 19 L 75 19 L 75 37 L 57 37 L 57 19 Z M 57 0 L 75 0 L 75 18 L 57 18 L 57 0 Z M 76 42.75 L 94 42.75 L 94 60.75 L 76 60.75 L 76 42.75 Z M 76 23.75 L 94 23.75 L 94 41.75 L 76 41.75 L 76 23.75 Z M 76 4.75 L 94 4.75 L 94 22.75 L 76 22.75 L 76 4.75 Z M 95 47.5 L 113 47.5 L 113 65.5 L 95 65.5 L 95 47.5 Z M 95 28.5 L 113 28.5 L 113 46.5 L 95 46.5 L 95 28.5 Z M 95 9.5 L 113 9.5 L 113 27.5 L 95 27.5 L 95 9.5 Z M 48.95 67.8 L 66.95 67.8 L 66.95 85.8 L 48.95 85.8 L 48.95 67.8 Z M 67.95 67.8 L 85.95 67.8 L 85.95 85.8 L 67.95 85.8 L 67.95 67.8 Z M 116.05 9.5 L 134.05 9.5 L 134.05 27.5 L 116.05 27.5 L 116.05 9.5 Z M 90.785 68.308 L 108.392 72.051 L 104.65 89.657 L 87.043 85.915 L 90.785 68.308 Z M 133.671 83.305 L 148.233 93.886 L 137.653 108.448 L 123.091 97.868 L 133.671 83.305 Z M 144.839 67.934 L 159.401 78.514 L 148.821 93.077 L 134.258 82.496 L 144.839 67.934 Z M 113.016 73.553 L 129.46 80.874 L 122.139 97.318 L 105.695 89.997 L 113.016 73.553 Z M 120.744 56.196 L 137.188 63.517 L 129.867 79.961 L 113.423 72.64 L 120.744 56.196 Z" vector-effect="non-scaling-stroke"/></g></svg>